<svg xmlns="http://www.w3.org/2000/svg" width="32" height="32" viewBox="0 0 32 32">
  <path d="M16.0071111,7.83964365 C11.4844444,7.83964365 7.83644444,11.4957684 7.83644444,16.0285078 C7.83644444,20.5612472 11.4844444,24.2173719 16.0071111,24.2173719 C20.5297778,24.2173719 24.1777778,20.5612472 24.1777778,16.0285078 C24.1777778,11.4957684 20.5297778,7.83964365 16.0071111,7.83964365 Z M16.0071111,21.3523385 C13.0844444,21.3523385 10.6951111,18.9648107 10.6951111,16.0285078 C10.6951111,13.0922049 13.0773333,10.7046771 16.0071111,10.7046771 C18.9368889,10.7046771 21.3191111,13.0922049 21.3191111,16.0285078 C21.3191111,18.9648107 18.9297778,21.3523385 16.0071111,21.3523385 Z M26.4177778,7.50467706 C26.4177778,8.56659243 25.5644444,9.41469933 24.512,9.41469933 C23.4524444,9.41469933 22.6062222,8.55946548 22.6062222,7.50467706 C22.6062222,6.44988864 23.4595556,5.59465479 24.512,5.59465479 C25.5644444,5.59465479 26.4177778,6.44988864 26.4177778,7.50467706 Z M31.8293333,9.44320713 C31.7084444,6.88463252 31.1253333,4.61826281 29.2551111,2.75100223 C27.392,0.883741648 25.1306667,0.299331849 22.5777778,0.171046771 C19.9466667,0.0213808463 12.0604444,0.0213808463 9.42933333,0.171046771 C6.88355556,0.2922049 4.62222222,0.876614699 2.752,2.74387528 C0.881777778,4.61113586 0.305777778,6.87750557 0.177777778,9.43608018 C0.0284444444,12.0730512 0.0284444444,19.9768374 0.177777778,22.6138085 C0.298666667,25.1723831 0.881777778,27.4387528 2.752,29.3060134 C4.62222222,31.1732739 6.87644444,31.7576837 9.42933333,31.8859688 C12.0604444,32.0356347 19.9466667,32.0356347 22.5777778,31.8859688 C25.1306667,31.7648107 27.392,31.1804009 29.2551111,29.3060134 C31.1182222,27.4387528 31.7013333,25.1723831 31.8293333,22.6138085 C31.9786667,19.9768374 31.9786667,12.0801782 31.8293333,9.44320713 Z M28.4302222,25.4432071 C27.8755556,26.8400891 26.8017778,27.9162584 25.4008889,28.4792873 C23.3031111,29.3131403 18.3253333,29.1207127 16.0071111,29.1207127 C13.6888889,29.1207127 8.704,29.3060134 6.61333333,28.4792873 C5.21955556,27.9233853 4.14577778,26.847216 3.584,25.4432071 C2.752,23.3407572 2.944,18.3518931 2.944,16.0285078 C2.944,13.7051225 2.75911111,8.7091314 3.584,6.61380846 C4.13866667,5.2169265 5.21244444,4.14075724 6.61333333,3.57772829 C8.71111111,2.74387528 13.6888889,2.9363029 16.0071111,2.9363029 C18.3253333,2.9363029 23.3102222,2.75100223 25.4008889,3.57772829 C26.7946667,4.13363029 27.8684444,5.20979955 28.4302222,6.61380846 C29.2622222,8.71625835 29.0702222,13.7051225 29.0702222,16.0285078 C29.0702222,18.3518931 29.2622222,23.3478842 28.4302222,25.4432071 Z"/>
</svg>
