<svg xmlns="http://www.w3.org/2000/svg" width="32" height="32" viewBox="0 0 32 32">
  <path d="M31.9144766,6.46597938 C31.7719376,9.61237113 29.6053452,13.9206186 25.4004454,19.3907216 C21.0601336,25.1061856 17.389755,27.9639175 14.3821826,27.9639175 C12.522049,27.9639175 10.9469933,26.2247423 9.65701559,22.7463918 C7.14832962,13.4226804 6.07928731,7.95979381 4.00534521,7.95979381 C3.76302895,7.95979381 2.92917595,8.47216495 1.49665924,9.48247423 L0,7.51958763 C3.67750557,4.25051546 7.19109131,0.613402062 9.39331849,0.411340206 C11.8806236,0.165979381 13.4057906,1.89072165 13.9830735,5.57113402 C16.0285078,18.6690722 16.9336303,20.6463918 20.6538976,14.714433 C21.986637,12.5783505 22.7064588,10.9546392 22.8062361,9.83608247 C23.1483296,6.52371134 20.2547884,6.74742268 18.2948775,7.59896907 C19.8628062,2.39587629 22.8632517,-0.129896907 27.2890869,0.0144329897 C30.5532294,0.101030928 32.0997773,2.25876289 31.9144766,6.46597938 Z" transform="translate(0 2)"/>
</svg>
