<?xml version="1.0" encoding="utf-8"?>
<!-- Generator: Adobe Illustrator 16.0.0, SVG Export Plug-In . SVG Version: 6.00 Build 0)  -->
<!DOCTYPE svg PUBLIC "-//W3C//DTD SVG 1.1//EN" "http://www.w3.org/Graphics/SVG/1.1/DTD/svg11.dtd">
<svg version="1.1" id="Layer_1" xmlns="http://www.w3.org/2000/svg" xmlns:xlink="http://www.w3.org/1999/xlink" x="0px" y="0px"
	 viewBox="0 0 841.89 595.276" enable-background="new 0 0 841.89 595.276"
	 xml:space="preserve">
<g>
	<defs>
		<rect id="SVGID_1_" width="841.89" height="595.276"/>
	</defs>
	<clipPath id="SVGID_2_">
		<use xlink:href="#SVGID_1_"  overflow="visible"/>
	</clipPath>
	<path clip-path="url(#SVGID_2_)" d="M427.506,245.665c-0.124,1.004-0.079,2.069-0.422,2.992c-0.3,0.805-0.998,0.478-1.248-0.166
		c-0.474-1.22-0.065-2.213,0.909-2.957C426.998,245.577,427.253,245.622,427.506,245.665 M518.336,204.621
		c-0.7,0.502-1.339,1.127-1.844,1.823c-0.088,0.121,0.777,1.145,0.823,1.118c0.774-0.462,1.487-1.026,2.442-1.735
		C519.108,205.267,518.438,204.546,518.336,204.621 M342.216,404.565c1.178,1.715,0.367,3.15-1.671,5.368
		C339.791,408.686,340.675,405.729,342.216,404.565 M218.314,360.758c-0.014-0.026-0.67,0.128-0.774,0.33
		c-0.508,0.977-1.001,1.975-1.339,3.019c-0.1,0.307,0.231,0.989,0.536,1.13c0.309,0.143,1.035-0.034,1.218-0.309
		c0.479-0.722,0.76-1.571,1.14-2.416C218.814,361.847,218.593,361.287,218.314,360.758 M337.707,418.841
		c-0.048-1.294,0.527-2.172,1.667-2.673c0.944-0.413,1.547-0.062,1.332,0.966c-0.28,1.333-0.743,2.632-1.19,3.924
		c-0.081,0.233-0.467,0.505-0.708,0.501c-0.228-0.004-0.579-0.31-0.65-0.549C337.947,420.305,337.849,419.566,337.707,418.841
		 M513.629,377.611c0.441-1.238,0.808-2.632,1.641-3.572c1.864-2.102,3.87-4.125,6.062-5.874c1.922-1.532,2.547-3.254,1.876-6.059
		c-1.048,0.901-2.229,1.489-2.739,2.438c-1.357,2.521-3.603,4.214-5.348,6.355c-1.223,1.501-3.337,2.769-2.117,5.338
		c0.109,0.23-0.372,0.888-0.725,1.16c-0.906,0.695-1.55,1.427-1.09,2.835C512.757,379.873,513.206,378.802,513.629,377.611
		 M335.004,279.023c1.256-0.746,2.479-1.466,3.696-2.198c0.549-0.329,1.049-0.813,1.641-0.976c0.461-0.129,1.03,0.128,1.551,0.214
		c-0.233,0.519-0.323,1.238-0.723,1.522c-1.546,1.1-3.2,2.046-4.793,3.083c-0.341,0.222-0.748,0.529-0.861,0.881
		c-0.571,1.771-2.004,1.693-3.394,1.636c-1.262-0.054-2.518-0.236-3.779-0.343c-0.991-0.083-1.469-0.664-0.95-1.486
		c0.569-0.902,1.342-1.757,2.213-2.365c0.806-0.563,1.885-0.718,2.798-1.148C334.239,276.979,334.268,276.966,335.004,279.023
		 M408.341,138.814c-0.624,0.203-1.463,0.959-1.507,1.521c-0.236,2.986-1.056,5.703-2.768,8.188
		c-0.579,0.841-1.168,2.069,0.178,2.771c1.397,0.729,0.757,1.39,0.28,2.282c-1.07,2.008-2.067,4.056-3.027,6.118
		c-0.519,1.115-0.834,2.325-1.36,3.434c-0.72,1.517-0.146,3.374,1.369,3.374c3.034-0.003,6.212,0.417,8.913-1.599
		c1.863-1.39,3.561-3.228,5.652-4.017c2.091-0.788,2.692-2.052,3.011-3.882c0.035-0.194,0.187-0.387,0.325-0.544
		c2.141-2.456,3.371-5.278,4-8.499c0.592-3.03,0.031-5.813-2.15-6.965c-2.893-1.529-5.99-2.473-9.569-2.717
		C410.742,138.415,409.485,138.44,408.341,138.814 M514.405,317.607c-0.935,1.505-1.785,3.072-2.825,4.5
		c-1.272,1.744-2.648,3.423-4.09,5.033c-0.831,0.929-1.863,1.682-2.831,2.483c-0.612,0.509-1.385,0.864-1.89,1.456
		c-1.892,2.218-4.522,3.311-6.956,4.695c-1.793,1.021-2.046,0.827-3.159-0.942c-0.311-0.492-1.212-0.902-1.813-0.867
		c-1.69,0.098-3.366,0.441-5.046,0.7c-2.433,0.373-3.564-0.999-2.693-3.292c0.188-0.496,0.374-1.014,0.676-1.439
		c3.284-4.647,4.566-10.271,7.383-15.16c0.727-1.262,0.502-3.105,0.597-4.688c0.114-1.959,0.628-3.719,2.346-4.82
		c0.471-0.302,1.715-0.347,1.806-0.146c0.855,1.876,2.62,1.283,3.9,1.328c6.581,0.23,10.361,4.51,13.866,9.242
		c0.317,0.43,0.31,1.102,0.453,1.661C514.221,317.436,514.312,317.522,514.405,317.607 M240.584,337.059
		c0.875,1.465,0.458,2.138-1.575,2.544C239.595,338.657,240.054,337.915,240.584,337.059 M219.971,389.058
		c0.029,0.118,0.059,0.236,0.088,0.354c-0.695,0.145-1.408,0.435-2.074,0.351c-0.225-0.028-0.331-1.005-0.563-1.795
		C218.589,388.467,219.28,388.763,219.971,389.058 M237.539,473.011c-0.933-0.389-1.837-0.85-2.729-1.328
		c-0.072-0.039-0.029-0.529,0.037-0.548c0.311-0.091,0.692-0.205,0.969-0.102c0.827,0.312,1.618,0.719,2.616,1.178
		C237.958,472.648,237.653,473.058,237.539,473.011 M226.946,379.894c-0.998-1.672-0.217-4.613,1.341-5.96
		c0.16,0.052,0.319,0.103,0.479,0.155C228.183,375.954,227.598,377.819,226.946,379.894 M241.812,458.066
		c-0.459-0.07-1.215-1.394-1.042-1.812c0.514-1.241,1.718-1.336,3.196-0.961C243.226,456.44,243.815,458.374,241.812,458.066
		 M273.894,439.464c0.032,1.943,0.043,3.89-0.056,5.828c-0.018,0.346-0.589,0.661-0.904,0.99c-0.333-0.355-0.701-0.686-0.984-1.077
		c-0.142-0.196-0.221-0.522-0.173-0.76c0.382-1.89,0.801-3.771,1.209-5.657c0.148-0.098,0.296-0.194,0.444-0.293
		C273.591,438.819,273.887,439.139,273.894,439.464 M220.528,385.332c-0.141-0.027-0.281-0.057-0.422-0.086
		c0.076-1.127,0.16-2.254,0.223-3.382c0.066-1.156,0.111-2.313,0.179-3.747c-0.506,1.038-0.915,1.878-1.488,3.056
		c-0.283-0.682-0.48-0.926-0.463-1.152c0.128-1.656-0.359-2.688-2.27-2.619c-0.312,0.012-0.962-0.632-0.91-0.825
		c0.157-0.576,0.497-1.181,0.945-1.566c0.217-0.188,0.877-0.002,1.258,0.178c0.526,0.248,0.978,0.652,1.462,0.989
		c0.344-0.694,0.934-1.37,0.989-2.087c0.264-3.487,0.697-6.896,2.719-9.896c0.223-0.331,0.376-0.841,0.301-1.217
		c-0.351-1.759,1.039-2.192,2.361-3.286c-0.114,0.847-0.086,1.312-0.244,1.704c-0.937,2.334-1.046,4.906-2.723,7.076
		c-1.065,1.378-1.218,3.477-1.699,5.273c-0.082,0.307,0.248,0.723,0.387,1.087c0.372-0.156,0.887-0.215,1.082-0.495
		c0.353-0.506,0.612-1.125,0.739-1.732c0.382-1.824,0.667-3.668,1.024-5.497c0.079-0.41,0.256-0.813,0.454-1.184
		c2.871-5.344,5.736-10.69,8.646-16.013c0.594-1.086,1.366-2.075,2.056-3.108c0.206,0.114,0.411,0.229,0.617,0.346
		C228.968,359.195,223.076,371.599,220.528,385.332 M214.725,437.888c0.197-0.954,0.386-1.909,0.594-2.86
		c0.198-0.908,0.884-2.114,0.533-2.659c-0.945-1.468-0.593-2.794-0.334-4.261c0.174-0.989,0.227-2.237-1.032-2.552
		c-1.78-0.444-1.339-1.426-0.874-2.529c1.52-3.61,3.04-7.221,4.547-10.836c0.141-0.339,0.308-0.732,0.258-1.069
		c-0.063-0.422-0.338-0.812-0.522-1.217c-0.342,0.207-0.785,0.339-1.004,0.636c-0.505,0.685-0.812,1.522-1.354,2.168
		c-3.237,3.856-5.486,8.275-7.205,12.945c-1.691,4.596-4.46,8.859-4.237,14.083c0.101,2.38-0.659,4.822-0.382,7.161
		c0.197,1.658,0.696,3.254,0.459,4.983c-0.108,0.795,0.442,1.202,1.365,1.103c0.348-0.038,1.074,0.415,1.075,0.647
		c0.009,2.095,0.317,4.065,1.557,5.84c0.533,0.763,0.686,1.917,1.363,2.434c3.119,2.384,6.259,4.771,9.587,6.841
		c3.704,2.305,7.755,3.935,11.954,5.191c4.755,1.424,9.522,2.241,14.452,0.989c1.615-0.41,2.027-1.028,1.776-2.727
		c-0.048-0.322,0.102-0.674,0.161-1.01c0.325,0.086,0.724,0.081,0.964,0.275c1.392,1.124,1.71,1.084,2.61-0.452
		c0.977-1.666,1.516-1.786,3.108-0.712c0.596,0.401,1.205,0.784,1.807,1.177c-0.695,0.371-1.419,0.698-2.074,1.13
		c-0.308,0.204-0.746,0.761-0.67,0.892c0.206,0.354,0.74,0.856,0.997,0.782c1.6-0.452,3.558-0.625,4.658-1.67
		c3.546-3.369,7.435-6.472,9.957-10.804c0.224-0.385,0.589-0.688,0.992-1.146c0.935,1.394,0.619,2.574,0.142,3.788
		c-0.123,0.312-0.179,0.91-0.023,1.016c0.295,0.197,0.854,0.3,1.147,0.145c0.688-0.363,1.39-0.806,1.897-1.384
		c2.041-2.321,4.052-4.673,5.96-7.103c0.301-0.383,0.223-1.326-0.032-1.837c-0.952-1.908-1.194-3.699,0.1-5.571
		c1.19-1.722,1.182-3.656,0.976-5.688c-0.129-1.266,0.166-2.617,0.485-3.875c0.282-1.112-0.333-3.394-1.207-4.11
		c-0.378-0.31-0.713-0.926-0.71-1.4c0.008-1.433-0.702-2.236-1.885-2.887c-0.748-0.412-1.31-1.148-2.038-1.612
		c-0.524-0.335-1.285-0.771-1.761-0.613c-1.059,0.348-1.547-0.122-2.171-0.798c-1.625-1.766-3.072-3.879-5.057-5.083
		c-2.468-1.498-2.984-4.934-6.077-5.6c-0.072-0.017-0.092-0.199-0.17-0.263c-0.756-0.602-1.509-1.206-2.281-1.786
		c-0.505-0.379-1.193-0.608-1.537-1.093c-2.433-3.427-6.104-5.267-9.433-7.568c-3.903-2.699-7.795-5.434-11.508-8.385
		c-2.606-2.07-4.795-4.631-5.423-8.081c-0.276-1.513-0.281-3.079-0.358-4.624c-0.025-0.502,0.077-1.021,0.208-1.51
		c0.023-0.086,0.688-0.117,0.701-0.071c0.136,0.475,0.239,0.968,0.274,1.459c0.069,0.938-0.321,2.011,0.868,2.726
		c1.388-2.573,0.627-4.767-0.82-7.105c-0.601,0.661-1.097,1.206-1.593,1.751c-0.186-0.073-0.373-0.147-0.559-0.222
		c0.362-1.317,0.634-2.671,1.152-3.924c0.128-0.311,1.062-0.274,1.619-0.422c0.253-0.067,0.651-0.137,0.71-0.303
		c0.598-1.67,1.972-3.655,1.502-4.975c-0.725-2.038,0.116-3.677,0.612-5.102c0.905-2.603,2.684-4.908,4.164-7.298
		c1.052-1.696,0.97-1.939-1.112-2.123c0.282-1.771,0.577-3.272,2.665-4.086c1.799-0.699,3.027-2.281,3.076-4.484
		c0.011-0.492,0.455-0.983,0.726-1.459c0.666-1.167,1.359-2.319,2.018-3.49c0.382-0.677,0.57-1.532,1.099-2.046
		c2.417-2.347,4.821-4.727,7.427-6.853c2.299-1.875,4.827-3.479,7.329-5.086c0.506-0.324,1.834-0.355,1.943-0.126
		c0.322,0.682,0.456,1.628,0.246,2.351c-0.606,2.09-1.447,4.109-2.127,6.181c-0.172,0.524-0.087,1.133-0.117,1.703
		c-0.038,0.699,0.097,1.463-0.137,2.088c-1.286,3.439-2.825,6.792-3.958,10.278c-0.949,2.921-1.498,5.973-2.154,8.981
		c-0.478,2.194-0.768,4.43-2.678,5.995c-0.316,0.26-0.376,0.839-0.534,1.278c-0.642,1.788-1.251,3.589-1.921,5.367
		c-0.674,1.787-1.55,3.512-2.042,5.344c-0.202,0.749,0.122,2.205,0.643,2.465c1.059,0.529,1.036,1.058,0.862,1.985
		c-0.56,2.998,0.694,4.384,3.554,5.414c2.242,0.806,4.17-0.464,6.255-0.197c0.105,0.013,0.48-0.863,0.442-1.3
		c-0.035-0.402-0.458-0.771-0.627-1.028c1.69-2.325,4.264-3.871,4.656-6.971c1.906,0.313,2.485-1.142,3.04-2.451
		c0.554-1.31,0.986-2.587,2.667-2.842c0.336-0.051,0.693-0.496,0.892-0.845c2.341-4.107,4.652-8.231,6.978-12.348
		c0.405-0.716,0.844-1.412,1.299-2.173c0.707,0.709,1.208,0.83,3.051,0.883c1.726,0.05,2.835-1.238,2.68-2.954
		c-0.058-0.634,0.081-1.354,0.35-1.933c0.423-0.915,1.098-1.711,1.533-2.621c0.227-0.476,0.403-1.209,0.194-1.614
		c-0.477-0.921-0.299-1.482,0.508-2.011c1.106-0.725,1.067-1.666,0.63-2.808c-0.213-0.555-0.179-1.322,0.03-1.89
		c0.309-0.835,0.898-1.562,1.324-2.36c1.3-2.437,2.629-4.858,3.85-7.333c0.9-1.826,0.49-3.513-0.508-5.29
		c-0.624-1.11-0.653-2.587-0.808-3.916c-0.183-1.571,0.232-3.372-0.398-4.699c-1.693-3.573-4.152-6.583-8.043-8.083
		c-2.896-1.116-5.761-2.312-8.664-3.407c-0.376-0.142-0.897,0.123-1.354,0.171c-1.038,0.109-2.083,0.156-3.113,0.31
		c-0.716,0.106-1.411,0.351-2.117,0.529c-1.163,0.296-2.403,0.99-3.472,0.787c-1.682-0.319-3.08-1.359-4.439-2.612
		c-1.357-1.252-3.386-1.949-5.239-2.396c-0.651-0.157-1.654,1.153-2.497,1.792c-0.128,0.097-0.251,0.201-0.387,0.284
		c-1.742,1.071-3.705,1.901-5.181,3.26c-2.727,2.51-5.18,5.321-7.716,8.035c-0.27,0.289-0.346,0.767-0.487,1.167
		c-0.314,0.891-0.423,1.922-0.948,2.66c-2.74,3.852-5.579,7.634-8.396,11.431c-0.334,0.451-0.746,0.845-1.394,1.571
		c0.605,0.269,1.049,0.467,1.676,0.747c-0.609,0.48-0.922,0.915-1.143,0.873c-1.606-0.311-2.513,0.047-2.16,1.918
		c0.028,0.149-0.177,0.369-0.314,0.521c-1.31,1.455-2.638,2.895-3.942,4.355c-1.289,1.441-1.472,3.119-1.071,4.951
		c0.141,0.642,0.167,1.347,0.071,1.998c-0.275,1.867-0.662,3.719-0.946,5.586c-0.047,0.313,0.106,0.816,0.339,0.97
		c0.227,0.149,0.718,0.049,1.017-0.097c0.471-0.23,0.879-0.59,1.313-0.896c0.121,0.103,0.241,0.204,0.361,0.307
		c-0.699,2.104-1.406,4.206-2.092,6.315c-0.284,0.871-0.432,1.799-1.763,1.564c-0.215-0.039-0.603,0.593-0.826,0.965
		c-0.562,0.938-0.847,2.298-1.66,2.771c-1.343,0.78-1.728,1.965-1.873,3.152c-0.309,2.533-0.344,5.103-0.434,7.659
		c-0.017,0.509,0.243,1.023,0.345,1.543c0.294,1.498,0.754,2.992,0.816,4.501c0.101,2.488,0.184,4.905,2.018,6.874
		c0.241,0.259,0.231,0.775,0.286,1.18c0.111,0.822,0.052,1.691,0.301,2.465c1.261,3.935,3.647,7.075,6.906,9.596
		c1.008,0.778,1.907,1.698,2.871,2.536c1.4,1.216,2.709,2.577,4.249,3.581c2.139,1.395,4.353,2.78,6.719,3.694
		c4.058,1.568,6.939,4.441,9.751,7.562c3.877,4.301,4.297,9.004,2.319,14.255c-0.467,1.239-0.619,2.894-0.196,4.105
		c0.693,1.98,0.219,3.458-0.823,5.046c-0.621,0.946-1.039,2.028-1.522,3.062c-0.488,1.047-0.944,2.109-1.218,2.727
		c-1.494-0.528-2.547-1.061-3.66-1.262c-2.26-0.411-4.385-0.033-6.472,1.104c-2.761,1.506-4.187,1.08-6.409-1.052
		c-1.01-0.968-2.325-1.613-3.444-2.479c-0.37-0.287-0.827-0.841-0.78-1.214c0.147-1.147,0.054-1.971-1.243-2.369
		c-0.352-0.108-0.551-0.734-0.808-1.129c-0.267-0.412-0.52-0.833-0.793-1.272c-0.909,0.872-1.662,1.594-2.429,2.33
		c-0.703-2.501-1.27-4.703-1.951-6.869c-0.47-1.499-1.427-2.387-3.199-1.776C215.088,438.049,214.906,437.969,214.725,437.888
		 M330.558,262.413c0.284,0.002,0.569,0.004,0.854,0.006v-2.407c-0.285,0.048-0.812,0.075-0.817,0.146
		C330.534,260.904,330.558,261.659,330.558,262.413 M343.874,238.294c-0.185-0.112-0.37-0.226-0.555-0.338
		c-0.475,0.525-0.95,1.052-1.425,1.579c0.584,0.433,1.168,0.867,1.752,1.301c0.124-0.091,0.247-0.183,0.37-0.273
		C343.968,239.808,343.92,239.05,343.874,238.294 M341.864,258.936c-0.137-0.127-0.273-0.256-0.41-0.383
		c-0.986,1.214-1.972,2.427-2.743,3.374C339.305,260.778,341.707,261.071,341.864,258.936 M296.08,167.729
		c-0.788-0.523-1.483-1.143-1.611-1.041c-0.602,0.472-1.048,1.145-1.55,1.745c0.37,0.286,0.878,0.891,1.084,0.801
		C294.652,168.952,295.189,168.408,296.08,167.729 M338.304,257.056c-1.521-0.511-2.936-0.121-3.323,1.049
		c-0.106,0.322,0.273,1.135,0.549,1.198C336.829,259.6,338.133,258.468,338.304,257.056 M324.193,268.41
		c1.296,0.19,2.277,0.444,3.259,0.447c1.083,0.003,1.482-0.836,1.313-1.766c-0.072-0.396-0.756-1.04-1.029-0.978
		C326.42,266.409,325.081,266.802,324.193,268.41 M336.904,270.024c-1.436-0.899-2.528-1.301-3.081-0.017
		c-0.63,1.467-1.659,2.266-3.012,2.83c-0.326,0.137-0.679,0.207-1.02,0.307c0.172,0.173,0.344,0.347,0.516,0.522
		C333.337,274.044,334.198,270.908,336.904,270.024 M306.084,177.364c3.307,0.756,6.192-1.06,5.745-3.527
		C307.788,174.503,307.011,174.967,306.084,177.364 M344.348,259.523c1.614-1.719,3.122-3.28,4.559-4.902
		c0.235-0.265,0.263-0.827,0.186-1.211c-0.05-0.246-0.573-0.649-0.702-0.589c-1.001,0.462-2.65,0.881-2.79,1.577
		c-0.339,1.686-1.235,2.473-2.638,3.03c-0.053,0.021-0.045,0.195-0.069,0.313C343.287,258.224,343.685,258.71,344.348,259.523
		 M352.001,227.188c-1.268,1.439-2.442,2.716-3.535,4.061c-0.221,0.271-0.305,0.879-0.153,1.18c0.354,0.699,0.891,1.305,1.449,2.083
		c1.99-0.241,1.685-2.53,2.65-3.744C353.156,229.831,352.769,228.116,352.001,227.188 M355.813,236.866
		c-0.334,0.265-0.864,0.802-1.498,1.146c-0.356,0.194-1.05,0.257-1.287,0.041c-0.248-0.225-0.295-0.923-0.138-1.286
		c0.244-0.565,0.671-1.095,1.139-1.504c0.661-0.576,1.431-1.031,2.196-1.566c-1.993-1.04-2.598-0.755-3.317,1.089
		c-0.727,1.868-1.663,3.655-2.478,5.491c-0.207,0.467-0.298,0.985-0.442,1.48c0.519,0.038,1.048,0.153,1.556,0.096
		c1.221-0.142,2.427-0.45,3.649-0.528c1.007-0.063,1.407-0.579,1.131-1.553C356.064,238.852,355.984,237.88,355.813,236.866
		 M345.841,244.194c-0.972,0.554-2.065,0.871-2.691,1.594c-1.404,1.616-2.486,3.51-3.873,5.145
		c-0.915,1.078-2.131,1.901-3.213,2.838c1.697-0.167,3.355-0.611,4.976-1.163c0.302-0.103,0.646-0.644,0.644-0.98
		c-0.012-1.392,0.894-1.969,1.959-2.439C346.331,248.001,346.555,247.55,345.841,244.194 M335.367,245.523
		c-2.751,0.65-5.319,1.256-8.04,1.899c0.21,0.29,0.523,0.538,0.566,0.827c0.069,0.457,0.126,1.195-0.116,1.356
		c-0.387,0.254-1.34,0.357-1.498,0.132c-0.705-1.001-1.562-0.692-2.442-0.537c-0.366,0.066-0.74,0.215-1.097,0.178
		c-0.493-0.048-1.215-0.097-1.39-0.402c-0.182-0.319,0.08-0.993,0.313-1.421c0.379-0.699,0.874-1.341,1.354-1.981
		c0.887-1.186,1.334-2.444,1.37-3.984c0.028-1.17,0.666-2.32,1.001-3.488c0.946-3.308,1.955-6.601,2.783-9.939
		c0.491-1.98-0.361-3.672-1.776-5.058c-3.8-3.727-8.519-5.249-13.687-5.817c-2.132-0.235-4.389-0.455-6.29-1.331
		c-1.586-0.732-2.702-2.02-4.839-1.802c-1.006,0.103-2.199-1.563-3.294-2.445c-0.327-0.262-0.591-0.603-0.913-0.873
		c-2.037-1.708-3.689-3.696-4.96-6.061c-1.881-3.502-3.882-6.941-5.939-10.343c-0.334-0.554-1.248-0.733-1.834-1.165
		c-0.529-0.392-1.299-0.831-1.402-1.36c-0.428-2.191-0.667-4.42-0.93-6.64c-0.251-2.119-0.408-4.247-0.675-6.363
		c-0.328-2.591-0.111-3.039,2.311-4.187c0.189-0.09,0.373-0.192,0.703-0.362c-1.308-1.343-0.659-2.671-0.175-4.086
		c0.566-1.654,0.998-3.367,1.319-5.085c0.262-1.402,1.231-1.782,2.365-1.985c0.244-0.044,0.822,0.36,0.81,0.525
		c-0.089,1.21,0.512,2.545-0.759,3.565c-0.889,0.712-1.454,1.673-0.716,3.151c0.413-0.457,0.777-0.745,0.992-1.119
		c0.726-1.26,1.088-2.706,2.539-3.549c0.392-0.228,0.403-1.618,0.159-2.325c-0.417-1.206-0.396-2.036,0.832-2.657
		c0.927-0.471,0.874-1.101,0.147-1.752c-0.278-0.249-0.68-0.456-0.799-0.769c-0.215-0.563-0.258-1.193-0.373-1.793
		c0.707-0.105,1.538-0.499,2.096-0.259c1.452,0.625,1.782,0.585,2.406-1.009c-0.072-0.078-0.132-0.202-0.218-0.224
		c-2.293-0.58-2.393-0.988-0.91-3.022c1.347-1.847,2.617-3.75,3.928-5.624c0.244-0.349,0.484-0.712,0.783-1.011
		c6.172-6.185,10.93-13.47,15.99-20.519c0.768-1.07,1.656-2.066,2.58-3.006c1.793-1.822,4.068-1.549,6.313-1.301
		c0.364,0.041,0.816,0.281,1.073,0.143c2.199-1.18,4.296-0.242,6.37,0.308c3.137,0.829,6.23,1.823,9.348,2.724
		c0.441,0.127,1.026,0.328,1.364,0.151c3.428-1.797,6.913-0.974,10.27-0.043c5.906,1.64,11.306,4.343,15.822,8.612
		c2.021,1.909,3.898,3.89,3.604,6.963c-0.08,0.832-0.288,1.688-0.621,2.454c-1.962,4.497-4.305,8.758-6.951,12.921
		c-1.408,2.215-2.481,4.163-5.002,5.295c-1.002,0.451-1.576,2.087-2.112,3.288c-0.822,1.84-1.224,3.896-2.212,5.627
		c-0.977,1.713-2.233,3.434-3.776,4.619c-2.224,1.706-3.651,3.823-4.762,6.287c-1.043,2.316-2.318,4.419-4.721,5.651
		c-1.965,1.008-2.87,0.963-4.517-0.843c-0.39,2.668-2.65,2.361-4.34,3.09c-2.288,0.986-4.449,2.264-6.676,3.397
		c-0.423,0.215-0.887,0.359-1.345,0.495c-1.16,0.34-1.718-0.139-1.405-1.285c0.778-2.85,1.677-5.666,2.461-8.513
		c0.221-0.799,0.114-1.691,0.338-2.488c0.239-0.857,0.464-1.991,1.092-2.416c1.892-1.284,2.648-3.076,3.185-5.157
		c0.281-1.089,0.802-2.234,1.54-3.065c2.372-2.673,2.435-2.674,0.457-5.497c0.024-0.102,0.02-0.268,0.08-0.295
		c3.145-1.433,2.616-4.702,3.576-7.217c0.092-0.241-0.155-0.713-0.379-0.955c-2.076-2.226-1.996-4.26,0.248-6.149
		c0.884-0.745,1.529-1.616,1.092-3.146c-0.527,0.28-1.054,0.416-1.367,0.751c-2.845,3.04-5.673,6.096-8.457,9.193
		c-0.623,0.692-1.589,1.45-0.41,2.552c0.159,0.149,0.002,0.858-0.218,1.15c-0.958,1.271-1.996,2.481-3,3.719
		c-0.365,0.451-0.803,0.871-1.055,1.382c-1.048,2.122-2.485,3.829-4.465,5.205c-1.269,0.884-2.224,2.1-2.168,4.023
		c0.033,1.155-0.688,2.598-1.53,3.469c-3.018,3.122-4.051,7.133-5.423,11.023c-0.29,0.824-0.89,1.539-1.366,2.291
		c-0.109,0.172-0.375,0.265-0.442,0.441c-0.653,1.719-1.28,3.446-1.778,4.803c0.788,1.334,1.345,2.573,2.173,3.591
		c0.801,0.986,1.743,2.136,2.865,2.535c6.962,2.483,13.996,4.763,20.995,7.144c1.055,0.358,2.052,0.887,3.07,1.351
		c2.657,1.206,5.454,2.184,7.932,3.688c3.311,2.008,6.383,4.415,9.528,6.691c0.302,0.218,0.351,0.757,0.596,1.09
		c0.368,0.5,0.76,0.999,1.226,1.402c0.392,0.34,1.063,0.43,1.337,0.823c1.783,2.558,4.069,4.86,4.615,8.092
		c0.18,1.068-0.1,2.203-0.027,3.298c0.087,1.323-0.306,2.793,1.225,3.726c1.081,0.659,1.426,3.076,0.608,4.6
		c-0.595,1.108-1.439,2.116-2.328,3.014c-0.367,0.371-1.253,0.599-1.703,0.411c-0.436-0.183-0.802-0.956-0.873-1.512
		c-0.22-1.733-0.555-1.949-2.012-0.917c-0.728,0.516-1.348,1.183-2.102,1.858c2.376,2.493-0.847,2.434-1.45,3.607
		c0.039,0.057,0.107,0.207,0.144,0.2c1.429-0.279,2.827-0.345,3.73,1.066c1.036,1.619,1.511,3.47,0.434,5.142
		c-1.808,2.806-3.489,5.761-6.283,7.78c-0.466,0.337-1.066,0.487-1.542,0.814c-0.362,0.248-0.918,0.677-0.882,0.965
		c0.235,1.924-1.139,2.466-2.466,3.062c-0.434,0.195-0.903,0.332-1.369,0.433c-1.186,0.255-1.817,0.778-2.092,2.148
		c-0.504,2.511-2.542,3.672-4.834,4.4c-0.505,0.162-1.117,0.217-1.479,0.543c-0.804,0.726-1.485,0.564-2.301,0.067
		c-1.617-0.985-2.436-0.696-3.399,1.036c-0.199,0.359-0.499,0.711-0.839,0.935c-1.589,1.039-2.723,2.329-3.001,4.313
		c-0.063,0.454-0.67,1.039-1.146,1.19c-1.968,0.628-3.972,1.16-5.989,1.611c-0.373,0.084-0.864-0.363-1.301-0.565
		c0.403-0.338,0.771-0.904,1.216-0.975c1.91-0.301,2.077-0.381,1.402-2.174c-0.545-1.444,0.173-2.129,1.262-2.649
		c0.515-0.247,1.126-0.332,1.703-0.398c1.824-0.215,3.28-0.8,3.726-2.871c0.144-0.666,0.717-1.237,1.153-1.951
		c-3.185,0.233-6.192,0.451-9.234,0.673c0.564,3.005,0.413,3.276-2.078,4.628c-0.456,0.248-0.873,0.615-1.222,1.005
		c-0.762,0.851-1.599,1.15-2.713,0.721c-0.408-0.159-0.946,0.03-1.36-0.12c-0.606-0.22-1.158-0.596-1.726-0.917
		c-0.471-0.267-0.972-0.834-1.391-0.776c-1.524,0.21-3.018,0.628-4.608,0.986c-0.35,0.298-0.865,0.736-1.38,1.174
		c-0.218-0.632-0.437-1.263-0.655-1.895c0.155-0.094,0.311-0.189,0.466-0.282c-0.409-0.211-0.803-0.561-1.23-0.606
		c-1.67-0.18-2.597-0.93-2.768-2.708c-0.04-0.412-0.94-0.953-1.513-1.057c-1.492-0.272-2.259-0.827-1.737-2.484
		c0.098-0.311-0.291-1.114-0.451-1.113c-0.858,0.007-1.732,0.13-2.561,0.356c-0.275,0.075-0.38,0.764-0.657,0.843
		c-0.422,0.123-1.303,0.049-1.339-0.1c-0.435-1.78-2.033-2.075-3.335-2.705c-2.977-1.441-4.65-4.858-4.01-8.092
		c0.18-0.908,0.057-1.879,0.039-2.822c-0.061-3.229-0.042-6.218,2.386-9.021c4.813-5.554,10.978-9.302,16.761-13.575
		c1.803-1.333,3.652-2.61,5.548-3.805c0.494-0.311,1.451-0.506,1.819-0.237c0.426,0.311,0.59,1.192,0.582,1.823
		c-0.008,0.603-0.342,1.222-0.604,1.8c-2.255,4.959-5.387,9.302-9.107,13.274c-1.858,1.983-3.456,4.21-5.203,6.3
		c-1.864,2.231-1.737,4.757-0.933,7.264c0.467,1.452,1.362,2.766,2.052,4.148c1.149,2.305,3.546,2.766,5.59,3.705
		c0.378,0.172,1.129-0.208,1.588-0.514c1.651-1.097,3.206-1.268,4.847,0.05c0.515,0.413,1.235,0.655,1.898,0.782
		c1.666,0.321,2.373-0.438,2.25-2.125c-0.033-0.451,0.202-1.223,0.495-1.323c0.429-0.149,1.027,0.156,1.543,0.301
		c0.7,0.197,1.51,0.768,2.067,0.578c2.043-0.703,4.189-1.406,4.844-3.909c0.284-1.082,0.997-1.7,2.173-1.804
		c0.79-0.071,1.631-0.164,2.33-0.496c0.602-0.288,1.307-0.84,1.495-1.426c0.699-2.178,1.697-3.906,4.235-4.223
		c0.153-0.019,0.427-1.005,0.287-1.124c-1.198-1.028-0.598-1.889,0.167-2.73c0.465-0.512,1.021-0.939,1.499-1.439
		c0.246-0.258,0.656-0.704,0.578-0.869c-0.731-1.54,0.468-1.952,1.348-2.687C334.593,246.981,334.947,246.142,335.367,245.523
		 M479.374,212.959c0.808,1.482,0.539,2.102-1.283,2.585C478.602,214.516,478.95,213.812,479.374,212.959 M476.178,239.777
		c-0.205-0.258-0.633-0.668-0.577-0.752c0.315-0.471,0.731-0.884,1.17-1.252c0.043-0.037,0.462,0.374,0.952,0.78
		C477.079,239.063,476.628,239.42,476.178,239.777 M473.731,207.943c0.323,0.223,0.952,0.546,0.917,0.649
		c-0.201,0.607-0.558,1.162-0.862,1.734c-0.266-0.115-0.533-0.23-0.799-0.345C473.235,209.302,473.483,208.624,473.731,207.943
		 M383.346,213.397c-0.366,0.57-0.854,1.063-1.297,1.584c-0.22-0.231-0.672-0.58-0.623-0.677c0.311-0.621,0.732-1.189,1.32-2.08
		C383.086,212.866,383.429,213.268,383.346,213.397 M380.146,259.566c-0.169-0.225,0.036-0.731,0.071-1.108
		c0.341,0.051,0.901-0.001,0.984,0.173c0.346,0.726,0.547,1.52,0.802,2.289c-0.12,0.018-0.239,0.036-0.359,0.053
		C381.133,260.513,380.552,260.106,380.146,259.566 M424.62,234.224c-1.657-0.83-1.609-1.316,0.528-3.763
		C424.933,232.001,424.779,233.085,424.62,234.224 M422.416,246.255c0.27-0.066,0.702-0.029,0.854,0.142
		c0.145,0.164,0.144,0.672-0.005,0.842c-0.596,0.68-1.276,1.284-2.062,2.053C420.726,247.456,421.141,246.575,422.416,246.255
		 M424.382,265.858c0.305,1.727,0.608,3.455,0.913,5.182c-0.146,0.036-0.293,0.074-0.44,0.111
		C423.653,269.565,423.072,267.875,424.382,265.858 M428.274,226.627c1.002,2.869,0.733,4.188-1.378,5.518
		C427.397,230.139,427.835,228.392,428.274,226.627 M492.059,182.227c-0.705-2.476,1.415-4.013,1.459-6.001
		C492.988,178.105,494.452,180.472,492.059,182.227 M476.468,224.016c-0.03,0.731,0.504,1.485,0.79,2.228
		c-0.255,0.125-0.509,0.25-0.764,0.375c-0.414-0.644-1.269-1.387-1.151-1.914c0.252-1.13,1.005-2.149,1.553-3.212
		c0.175,0.103,0.351,0.205,0.526,0.308C477.08,222.539,476.497,223.266,476.468,224.016 M437.47,216.229
		c0.243-0.337,1.062-0.259,1.621-0.367c0.006,0.534,0.231,1.251-0.028,1.558c-0.51,0.604-1.291,0.978-1.959,1.446
		c-0.157-0.122-0.314-0.244-0.47-0.366C436.894,217.729,437.016,216.857,437.47,216.229 M483.593,192.422
		c-0.223-1.07,0.57-2.352,0.916-3.541c0.178,0.015,0.356,0.028,0.536,0.042c0.603,1.351,1.205,2.702,1.854,4.158
		C485.229,193.866,483.85,193.669,483.593,192.422 M468.704,204.277c0.104-0.401,1.005-0.597,1.538-0.886
		c0.213,0.539,0.746,1.22,0.581,1.594c-0.633,1.442-1.489,2.787-2.264,4.166l-0.642-0.123
		C468.158,207.439,468.305,205.826,468.704,204.277 M437.577,220.944c0.202,0.54,0.156,1.722-0.024,1.773
		c-1.795,0.511-2.035,2.11-2.555,3.669c-0.83-1.941-0.026-5.41,1.365-6.641C436.786,220.141,437.397,220.461,437.577,220.944
		 M429.704,235.229c-0.482,1.928-2.437,0.197-3.363,1.325c-0.51-1.736,0.027-2.251,1.426-2.678c1.006-0.309,1.8-1.311,2.782-2.076
		C431.77,233.085,429.992,234.076,429.704,235.229 M490.451,185.146c-0.036-0.438,0.607-0.934,0.938-1.403
		c0.2,0.079,0.398,0.157,0.599,0.237c-0.173,0.82-0.543,1.664-0.459,2.458c0.071,0.674,0.666,1.294,1.237,2.309
		c-0.711,1.066-3.275,1.468-2.847,3.878c-0.453-0.898-0.907-1.798-1.525-3.022C489.612,188.588,490.622,187.181,490.451,185.146
		 M481.899,223.875c0.425-1.497-0.108-2.424-1.275-3.273c-0.323-0.237-0.549-0.995-0.422-1.386c0.376-1.155,0.996-2.23,1.435-3.37
		c0.387-1.006,0.979-1.223,1.995-0.93c1.128,0.325,0.796,1.137,0.685,1.804c-0.111,0.671-0.338,1.366-0.689,1.945
		c-1.106,1.813-0.991,3.712,0.141,5.274c1.214,1.674,0.26,2.906-0.506,4.022c-0.407,0.593-1.671,0.598-2.36,0.81
		C481.26,226.96,481.47,225.385,481.899,223.875 M488.093,200.597c-0.189,0.699-0.382,1.402-0.496,2.114
		c-0.149,0.917-0.142,1.865-0.353,2.766c-0.206,0.88-0.491,1.89-1.805,1.133c-0.082-0.046-0.271-0.065-0.302-0.023
		c-1.55,2.224-2.857-0.166-4.599-0.103c0.4-1.362,0.743-2.532,1.102-3.754c0.775,0.458,1.621,1.178,1.815,1.032
		c1.001-0.749,2.009-1.608,2.687-2.643c0.932-1.422,1.571-3.035,2.336-4.568c0.23,0.07,0.459,0.139,0.689,0.206
		C488.809,198.038,488.438,199.314,488.093,200.597 M436.994,232.727c0.243-0.175,0.643-0.306,0.705-0.531
		c0.611-2.185,1.185-4.38,1.727-6.584c0.224-0.911,0.274-1.869,0.534-2.768c0.308-1.069,0.729-2.108,1.147-3.142
		c1.287-3.178,1.506-6.803,3.994-9.492c0.271-0.293,0.197-0.895,0.31-1.347c0.234-0.934,0.265-2.019,0.78-2.76
		c0.986-1.415,2.205-2.683,3.43-3.909c0.458-0.457,1.201-0.63,1.817-0.926c1.075-0.515,2.431-0.766,3.178-1.579
		c2.309-2.512,5.399-3.287,8.422-4.24c0.777-0.244,1.685-0.175,2.521-0.113c1.113,0.085,2.213,0.323,3.323,0.464
		c1.446,0.183,1.844,0.804,1.229,2.189c-0.946,2.135-2.091,4.19-2.905,6.371c-0.444,1.189-0.365,2.571-0.559,3.861
		c-0.089,0.6-0.106,1.296-0.426,1.761c-1.268,1.848-0.975,4.034-0.881,5.938c0.101,2.045,0.038,3.828-0.843,5.689
		c-0.812,1.716-1.378,3.562-1.918,5.391c-0.224,0.761,0.086,1.666,1.081,1.502c0.426-0.071,0.828-0.885,1.055-1.436
		c0.371-0.91,0.301-2.292,0.935-2.74c1.349-0.951,2.142-2.075,2.239-3.142c1.049-0.325,1.985-0.327,2.302-0.773
		c0.592-0.829-0.123-1.373-0.863-1.873c-0.294-0.2-0.477-1.067-0.29-1.372c0.501-0.821,1.229-1.501,2.044-2.442
		c1.032,2.008-0.604,4.901,3.064,5.316c-0.839,1.863-1.633,3.428-2.245,5.062c-0.334,0.891-0.744,2.054-0.435,2.818
		c0.441,1.092,0.266,1.886-0.096,2.869c-0.915,2.491-1.859,4.964-1.137,7.753c0.387,1.49-0.089,2.957-1.08,4.205
		c-0.363,0.456-0.744,0.936-0.954,1.468c-0.154,0.394-0.045,0.892-0.053,1.344c0.397,0,0.796-0.03,1.189,0.006
		c0.604,0.051,1.682,0.046,1.723,0.241c0.146,0.704,0.073,1.526-0.17,2.214c-0.155,0.438-0.753,0.722-1.158,1.069
		c-1.653,1.418-1.886,3.096-0.815,4.976c1.546,2.712,3.009,5.473,4.538,8.194c0.226,0.402,0.563,0.879,0.957,1.023
		c2.271,0.829,4.487,1.998,7.063,1.154c0.553-0.182,1.24,0.056,1.865,0.081c1.094,0.041,2.217,0.233,3.273,0.049
		c1.012-0.173,1.937-0.806,2.935-1.126c2.652-0.855,3.468-2.152,2.97-4.794c-0.077-0.405-0.084-0.885,0.061-1.258
		c0.65-1.677,1.217-3.411,2.093-4.968c1.61-2.864,3.396-5.629,5.164-8.4c0.305-0.477,0.888-0.778,1.602-1.376
		c0.126,0.895,0.234,1.403,0.264,1.917c0.225,4.041,0.454,8.082,0.636,12.125c0.057,1.272,0.573,2.024,1.792,2.523
		c1.021,0.419,1.899,1.187,2.939,1.864c-1.862,1.51-1.894,2.074-0.669,3.788c1.625,2.275,3.656,3.673,6.601,3.496
		c0.494-0.031,1.292,0.374,1.488,0.793c0.836,1.789,2.945,2.691,4.837,1.904c1.371-0.571,2.125-0.062,2.313,1.379
		c0.063,0.491,0.466,1.066,0.884,1.362c1.39,0.981,2.933,0.748,4.227-0.079c2.955-1.885,5.735-4.053,8.729-5.871
		c1.543-0.937,3.388-1.86,5.105-1.878c1.409-0.014,2.178-0.256,2.861-1.328c1.799-2.823,3.622-5.631,5.404-8.465
		c0.39-0.619,0.674-1.31,0.964-1.986c0.509-1.191,0.989-2.394,1.473-3.597c0.586-1.453,1.412-2.865,1.679-4.377
		c0.296-1.659,0.132-3.413,0.041-5.119c-0.027-0.549-0.453-1.078-0.696-1.616c-0.417,0.355-0.956,0.634-1.23,1.077
		c-1.089,1.77-1.964,3.686-3.167,5.37c-1.701,2.384-3.46,4.825-6.891,4.851c-0.446,0.003-0.913,0.286-1.332,0.512
		c-3.005,1.614-6.041,3.176-8.986,4.897c-3.02,1.762-6.296,2.593-9.713,2.9c-1.019,0.092-2.136-0.173-3.11-0.535
		c-1.189-0.439-1.889-1.291-1.486-2.762c0.263-0.962,0.387-2.003,0.337-2.996c-0.095-1.894-0.249-3.799-0.576-5.665
		c-0.514-2.928,0.883-5.124,2.42-7.353c0.441-0.64,0.577-1.519,0.747-2.311c0.306-1.429,0.253-3.001,0.84-4.291
		c2.411-5.295,5.248-10.37,8.689-15.083c0.785-1.072,1.53-2.183,2.4-3.183c1.129-1.295,2.504-2.391,3.523-3.76
		c2.416-3.247,4.49-6.758,7.931-9.124c0.629-0.433,1.138-1.161,1.484-1.859c0.928-1.871,2.624-2.306,4.406-2.714
		c0.732,2.863,0.403,5.524-1.32,8.016c-3.461,5.005-7.045,9.925-10.584,14.874c-0.663,0.926-1.322,1.807-2.734,1.478
		c-0.301-0.069-0.774,0.441-1.115,0.744c-0.67,0.591-1.337,1.195-1.943,1.852c-0.566,0.611-1.241,1.224-1.53,1.968
		c-0.5,1.291,0.177,2.075,1.499,1.753c1.382-0.336,2.703-0.922,4.053-1.392c0.541-0.189,1.089-0.513,1.633-0.514
		c2.576-0.002,4.765-0.866,6.594-2.68c0.213-0.212,0.704-0.511,0.768-0.45c1.41,1.314,2.955,0.246,4.426,0.283
		c1.957,0.051,3.525-0.699,4.615-2.361c1.119-1.706,2.682-2.258,4.691-2.07c0.615,0.057,1.536-0.392,1.9-0.906
		c1.442-2.029,2.672-4.209,4.093-6.256c0.318-0.461,1.069-0.803,1.655-0.862c1.615-0.161,2.089-0.786,2.522-3.256
		c0.246-1.4-0.207-2.089-1.749-2.122c0.119-0.8,0.13-1.504,0.333-2.145c1.188-3.737,2.47-7.423,2.922-11.38
		c0.332-2.905-0.53-5.53-3.13-6.894c-1.598-0.838-3.262-1.608-4.979-2.143c-0.866-0.269-1.918,0.04-2.884,0.12
		c-0.861,0.069-1.725,0.159-2.581,0.284c-0.917,0.133-2.039,0.035-2.695,0.534c-1.439,1.092-2.573,0.847-3.901-0.09
		c-1.962-1.386-3.979-2.693-6.011-3.975c-1.07-0.674-2.129-0.742-3.241,0.147c-1.344,1.075-2.719,2.202-4.262,2.913
		c-2.716,1.252-4.638,3.23-5.938,5.804c-0.749,1.481-1.186,3.092-3.08,3.544c-0.225,0.053-0.466,0.307-0.579,0.53
		c-0.958,1.893-2.118,3.726-2.75,5.726c-0.441,1.4-0.945,2.411-2.316,2.966c-1.052,0.427-1.338,1.119-0.631,2.149
		c0.225,0.328,0.389,1.089,0.222,1.229c-0.951,0.81-0.952,1.75-0.828,2.871c0.049,0.445-0.435,1.088-0.853,1.418
		c-1.419,1.117-2.906,2.146-4.393,3.174c-0.228,0.156-0.603,0.193-0.891,0.153c-2.233-0.308-3.709,0.873-4.713,2.615
		c-0.79,1.372-1.278,2.921-1.885,4.398c-0.777,1.888-1.162,3.974-3.37,4.993c-0.524,0.242-0.605,1.444-0.89,2.203
		c0.75,0.215,1.589,0.753,2.233,0.579c1.452-0.397,2.829-1.102,4.195-1.769c0.971-0.475,2.024-0.778,2.956-1.146
		c1.393-0.552,2.757-2.095,3.342-3.537c0.732-1.803,2.11-2.669,3.519-3.729c-0.617,1.691-1.451,3.254-2.267,4.828
		c-0.415,0.799-0.836,1.599-1.186,2.426c-0.543,1.288-0.98,2.622-1.549,3.897c-0.497,1.115-1.184,2.146-1.659,3.269
		c-0.83,1.96-1.531,3.975-2.352,5.94c-0.224,0.539-0.679,0.983-1.198,1.708c-0.395-1.388-0.746-2.29-0.877-3.221
		c-0.072-0.511,0.081-1.185,0.388-1.592c1.22-1.614,2.18-3.191,1.588-5.401c-0.258-0.958-0.152-2.039-1.382-2.165
		c-1.303-0.132-1.598,1.012-1.947,1.96c-0.329,0.891-0.481,1.883-0.964,2.676c-1.312,2.152-2.336,4.488-4.099,6.363
		c-0.944,1.004-1.629,2.263-2.618,3.211c-3.5,3.363-7.085,6.638-10.631,9.953c-1.747,1.634-1.896,1.646-3.83,0.15
		c0.231-0.595,0.576-1.166,0.646-1.767c0.052-0.452-0.145-1.259-0.419-1.351c-0.449-0.154-1.077,0.08-1.578,0.28
		c-0.254,0.102-0.37,0.509-0.59,0.738c-0.773,0.801-2.427,0.936-2.951,0.144c-0.841-1.265-1.572-1.448-2.602-0.19
		c-0.193,0.238-0.943,0.02-1.437,0.013c0.068-0.724,0.027-1.486,0.272-2.144c0.069-0.187,1.029-0.217,1.481-0.05
		c1.268,0.47,1.694-0.047,1.71-1.223c0.008-0.569-0.082-1.155,0.021-1.705c0.503-2.695,1.084-5.377,1.559-8.077
		c0.066-0.377-0.217-1.124-0.482-1.199c-1.523-0.439-1.053-1.413-0.83-2.414c0.232-1.041,0.616-1.849,1.856-1.769
		c1.203,0.079,0.986,1.062,1.074,1.808c0.13,1.094,0.44,2.099,1.748,2.061c1.333-0.041,1.723-1.023,1.79-2.22
		c0.067-1.225,0.163-2.452,0.321-3.668c0.187-1.424,0.741-2.519,2.416-2.718c1.06-0.126,1.49-0.879,1.392-1.966
		c-0.083-0.915-0.221-1.863-0.068-2.752c0.314-1.822,0.859-3.605,1.188-5.425c0.081-0.449-0.303-0.98-0.472-1.474
		c-0.438,0.318-0.938,0.581-1.293,0.974c-0.267,0.296-0.258,0.846-0.529,1.133c-0.744,0.783-0.898,1.56-0.577,2.623
		c0.37,1.228-0.531,1.857-2.313,1.495c0.471-0.98,0.952-1.882,1.342-2.821c0.895-2.149,1.768-4.308,2.592-6.486
		c0.173-0.455,0.294-1.096,0.104-1.49c-0.569-1.181-0.021-1.947,0.763-2.671c0.509-0.468,1.237-0.79,1.556-1.354
		c0.38-0.672,0.427-1.531,0.618-2.31h-2.492c0.951-1.095,1.697-2.213,2.688-3.034c1.424-1.18,1.851-2.703,0.918-4.306
		c-0.426-0.733-0.775-1.383,0.336-1.969c0.385-0.203,0.479-1.01,0.646-1.558c0.248-0.811,0.277-1.741,0.698-2.436
		c0.726-1.195,0.637-1.683-0.72-2.018c-1.257-0.311-1.797-1.279-1.187-2.42c0.419-0.782,1.062-1.452,1.659-2.125
		c0.769-0.871,1.704-1.615,2.37-2.553c2.777-3.918,4.261-8.265,4.084-13.119c-0.012-0.313-0.044-0.746,0.133-0.927
		c1.618-1.641,1.553-3.911,2.269-5.884c1.064-2.934,2.036-5.904,3.221-8.788c0.673-1.636,1.665-3.144,2.562-4.682
		c0.611-1.047,1.806-2.02,1.859-3.069c0.119-2.366,1.493-3.76,2.938-5.277c1.836-1.927,3.191-4.061,3.183-6.933
		c-0.003-1,0.835-2.004,1.298-3.001c0.372-0.802,0.824-1.573,1.116-2.401c0.275-0.784,0.303-1.658,0.588-2.437
		c0.589-1.615,0.196-2.452-1.492-2.733c-0.731-0.12-1.497-0.016-2.239-0.089c-3.804-0.369-7.625-0.634-11.401-1.2
		c-1.914-0.285-3.726-0.943-5.521,0.327c-0.263,0.185-0.711,0.135-1.075,0.147c-1.653,0.058-3.318,1.258-3.889,2.835
		c-1.552,4.305-3.297,8.552-4.604,12.93c-1.812,6.079-5.004,11.746-5.497,18.22c-0.015,0.201-0.13,0.411-0.244,0.588
		c-1.838,2.809-2.561,5.804-1.693,9.13c0.094,0.365-0.231,1.164-0.516,1.249c-1.736,0.523-1.902,1.819-1.846,3.293
		c0.014,0.359,0.055,0.75-0.062,1.077c-0.562,1.577-1.222,3.122-1.75,4.711c-0.386,1.161-0.275,2.209,0.653,3.24
		c1.26,1.401,0.609,4.368-1.117,5.059c-1.265,0.506-1.899,1.35-2.17,2.535c-0.354,1.555-1.293,1.96-2.723,1.6
		c-3.706-0.932-7.437-1.774-11.104-2.841c-2.026-0.589-3.983-1.065-6.111-0.711c-0.877,0.146-1.824,0.076-2.711-0.07
		c-2.977-0.492-5.91-0.512-8.831,0.362c-0.387,0.117-1.054,0.021-1.302-0.246c-1.571-1.686-3.287-1.004-5.017-0.437
		c-1.49,0.49-2.963,1.053-4.479,1.445c-0.97,0.25-1.702,0.508-1.743,1.692c-0.049,1.429-0.84,2.371-2.151,2.9
		c-0.344,0.14-0.774,0.23-0.988,0.491c-0.339,0.409-0.529,0.944-0.782,1.425c0.452,0.175,0.891,0.419,1.359,0.506
		c0.469,0.089,0.968,0.019,1.422,0.019c-0.832,1.939-1.412,3.763-2.378,5.353c-0.555,0.913-1.729,1.452-2.639,2.141
		c-0.271,0.206-0.591,0.349-0.893,0.521c0.122,0.271,0.153,0.444,0.255,0.556c1.439,1.582,1.397,1.535-0.045,3.008
		c-0.35,0.355-0.576,1.259-0.37,1.656c0.952,1.827,0.444,3.59,0.121,5.421c-0.224,1.264-0.601,2.756-0.151,3.831
		c0.875,2.097-0.199,3.086-1.456,4.364c-2.014,2.053-3.902,4.238-5.731,6.458c-2.46,2.986-4.647,6.227-8.567,7.583
		c-0.562,0.196-1.022,0.856-1.396,1.393c-1.254,1.805-2.254,3.828-3.718,5.433c-1.625,1.781-3.344,3.417-4.116,5.783
		c-0.092,0.283-0.344,0.539-0.579,0.742c-1.398,1.207-2.847,2.356-4.204,3.606c-0.533,0.493-0.992,1.142-1.283,1.807
		c-1.381,3.158-4.246,4.965-6.534,7.296c-0.116,0.119-0.377,0.096-0.854,0.202c0.277-1.502,0.504-2.84,0.778-4.167
		c0.109-0.53,0.319-1.037,0.483-1.555c-0.53-0.091-1.084-0.328-1.586-0.245c-0.889,0.146-1.354-0.06-1.733-0.931
		c-0.288-0.661-0.955-1.153-1.425-1.742c-0.244-0.306-0.427-0.661-0.638-0.994c0.391-0.205,0.769-0.542,1.177-0.583
		c0.512-0.052,1.047,0.199,1.575,0.21c1.14,0.027,2.229-0.981,2.238-2.064c0.011-1.197-0.816-1.452-1.806-1.59
		c-0.51-0.07-0.99-0.356-1.484-0.545c0.038-0.207,0.077-0.414,0.116-0.621c0.601,0.049,1.224,0.221,1.798,0.118
		c0.708-0.128,1.725-0.291,1.99-0.777c0.697-1.276,1.213-2.702,1.51-4.13c0.296-1.418,0.089-2.907,1.148-4.168
		c0.39-0.464,0.399-1.306,0.455-1.984c0.073-0.871,0.018-1.75,0.018-2.964c-0.647-0.201-1.708-0.531-2.769-0.86
		c-0.022-0.153-0.043-0.305-0.065-0.458c0.692-0.299,1.378-0.61,2.076-0.893c0.756-0.305,1.579-0.489,2.273-0.896
		c3.158-1.846,4.292-5.1,5.615-8.222c0.56-1.323,1.083-2.681,1.821-3.903c0.582-0.964,1.639-1.648,2.177-2.626
		c0.896-1.625,1.211-3.667,2.362-5.035c3.037-3.613,4.329-8.054,6.354-12.143c0.676-1.364,0.629-2.763-0.323-3.923
		c-0.935-1.141-1.906-2.511-3.175-3.075c-5.091-2.262-10.225-4.855-16.043-2.495c-1.66,0.674-3.442,1.405-3.931,3.384
		c-0.555,2.251-0.907,4.551-1.348,6.83c-0.149,0.769-0.052,1.753-0.498,2.263c-1.156,1.327-1.551,2.721-1.25,4.415
		c0.079,0.441-0.064,0.956-0.218,1.396c-0.82,2.342-1.674,4.673-2.524,7.005c-0.072,0.198-0.195,0.377-0.31,0.556
		c-1.928,3.023-2.544,6.338-2.029,9.842c0.187,1.272-0.001,2.283-0.924,3.137c-1.684-0.673-2.342-0.223-2.332,1.508
		c0.003,0.521,0.171,1.284-0.1,1.524c-1.763,1.563-1.288,2.788,0.402,3.947c0.057,0.04,0.031,0.199,0.001-0.045
		c-0.792,1.431-1.156,3.1-2.152,3.677c-1.999,1.16-2.561,3.223-3.849,4.801c-0.733,0.898-0.31,1.507,0.758,1.626
		c0.722,0.079,1.46,0.014,2.246,0.014c0.214,1.373-0.58,1.578-1.685,1.636c-1.599,0.085-3.77,3.963-3.03,5.374
		c0.152,0.291,0.511,0.53,0.829,0.667c1.322,0.565,1.739,1.427,1.161,2.803c-0.382,0.908-0.885,1.886-0.86,2.821
		c0.078,2.944,0.365,5.884,0.609,8.822c0.043,0.518,0.133,1.134,0.438,1.513c2.878,3.568,4.785,8.298,10.309,8.774
		c0.353,0.031,0.674,0.362,1.03,0.413c1.23,0.175,2.469,0.385,3.705,0.398c1.409,0.016,2.824-0.126,4.227-0.283
		c0.656-0.073,1.482-0.15,1.9-0.562c1.695-1.672,3.184-3.627,4.49-5.531c2.399-3.5,3.664-7.709,5.874-11.388
		c0.098-0.163,0.161-0.486,0.071-0.6c-0.633-0.802,0.124-1.233,0.324-1.878c0.523-1.688,0.838-3.403,2.481-4.441
		c0.059-0.038,0.013-0.215,0.057-0.306c0.701-1.475,1.368-2.969,2.125-4.414c1.132-2.163,2.33-4.291,3.494-6.437
		c0.149-0.277,0.187-0.754,0.395-0.835c2.218-0.874,3.031-3.243,4.883-4.515c1.378-0.948,2.137-2.854,4.641-2.679
		c-0.062,0.988,0.049,1.983-0.219,2.865c-0.341,1.121-0.472,2.065,0.479,2.919c0.714,0.641,0.582,1.269-0.003,1.943
		c-0.555,0.64-1.369,1.282-1.5,2.022c-0.577,3.283-1.598,6.5-1.048,9.956c0.278,1.746-0.152,3.605-0.262,5.412
		c-0.178,0.021-0.356,0.04-0.534,0.059c-0.289-0.49-0.597-0.969-0.862-1.471c-0.43-0.816-0.93-0.751-1.507-0.167
		c-0.926,0.938-1.191,3.919-0.452,4.982c1.581,2.277,1.383,4.986,1.822,7.539c0.133,0.777,0.344,1.546,0.418,2.329
		c0.077,0.826,0.378,2.106-0.02,2.417c-1.424,1.111-1.28,1.904,0.014,2.88c0.281,0.212,0.449,0.578,0.657,0.882
		c1.323,1.931,3.577,2.595,5.383,3.86c0.602,0.419,1.658,0.167,2.499,0.275c0.399,0.053,0.78,0.317,1.174,0.33
		c0.643,0.019,1.517,0.151,1.886-0.197c0.786-0.739,1.428-0.8,2.252-0.231c1.035,0.713,2.075,0.708,3.146,0.051
		c0.971-0.597,1.945-0.524,2.829,0.178c1.043,0.829,1.841,0.43,2.642-0.391c2.301-2.363,4.669-4.638,6.273-7.609
		c1.147-2.122,2.635-4.058,3.936-6.1c0.173-0.273,0.294-0.859,0.152-0.991c-0.257-0.236-0.726-0.303-1.113-0.328
		c-0.491-0.031-0.99,0.05-1.369,0.075c0.384-1.252,1.19-2.453,0.894-3.23c-0.537-1.404,0.015-2.04,0.842-2.892
		c0.635-0.656,1.444-1.458,1.53-2.266c0.257-2.387,1.027-4.405,2.905-5.963c0.352-0.292,0.839-0.723,0.838-1.087
		c-0.008-1.606-0.252-3.212-0.233-4.818c0.007-0.522,0.445-1.166,0.878-1.52c0.471-0.387,1.148-0.639,1.763-0.706
		c2.018-0.22,2.384-1.585,2.588-3.256c0.096-0.788,0.554-1.546,0.909-2.288c0.416-0.873,0.921-1.705,1.343-2.575
		c0.333-0.686,0.359-1.721,1.612-0.961c0.21,0.128,1.063-0.275,1.102-0.515c0.062-0.395-0.189-0.986-0.51-1.255
		c-0.411-0.347-1.023-0.452-1.546-0.667c-0.722-0.3-1.438-0.605-2.574-1.083c-0.114-0.408-0.824-1.649-0.505-2.03
		c1.283-1.531,0.871-3.148,0.774-4.802c-0.022-0.386,0.185-0.786,0.284-1.171c1.944,0.391,1.964,0.342,1.957-1.558
		c-0.003-0.62,0.196-1.25,0.368-1.858c0.406-1.435,0.883-2.851,1.252-4.296c0.067-0.263-0.24-0.623-0.374-0.94
		c-0.256,0.141-0.661,0.222-0.746,0.432c-0.75,1.863-1.506,3.727-2.125,5.636c-0.285,0.878,0.154,2.107-1.473,2.069
		c-0.22-0.004-0.488,0.745-0.678,1.169c-0.17,0.381-0.2,0.83-0.396,1.193c-1.74,3.264-3.499,6.516-2.028,10.556
		c-0.467-0.034-0.918-0.19-1.269-0.066c-0.679,0.239-1.568,0.478-1.886,1.006c-0.487,0.811-0.565,1.868-0.816,2.82
		c0.801,0.17,1.614,0.298,2.397,0.528c0.371,0.108,0.801,0.344,0.984,0.653c0.129,0.218-0.015,0.727-0.205,0.981
		c-0.546,0.73-1.178,1.396-2.044,2.397c-0.312-0.57-0.607-1.126-0.92-1.673c-0.239-0.419-0.5-0.828-0.751-1.242
		c-0.473,0.37-1.018,0.681-1.387,1.135c-0.189,0.232-0.04,0.724-0.084,1.091c-0.115,0.956-0.252,1.909-0.401,3.016
		c-0.57-0.296-0.838-0.536-1.128-0.565c-0.426-0.044-0.868,0.061-1.303,0.102c0.11,0.576,0.019,1.377,0.366,1.691
		c1.641,1.487,1.423,3.253,1.091,5.362c-0.943-0.478-1.709-0.918-2.514-1.265c-2.029-0.878-3.425-0.023-3.673,2.161
		c-0.077,0.678-0.077,1.563-0.489,1.967c-1.783,1.739-3.333,3.498-4.264,5.945c-0.622,1.641-2.137,3.037-3.489,4.284
		c-1.956,1.799-3.156,4.588-6.438,4.785c-0.985,0.059-1.454-0.014-1.573-0.877c-0.122-0.883-0.026-1.796-0.026-2.759
		c2.188,0.556,2.719,0.127,3.051-2.388c0.062-0.469-0.283-0.993-0.44-1.492c-0.473,0.271-1.112,0.43-1.383,0.837
		c-0.483,0.729-0.746,1.605-1.093,2.4c-0.833-0.207-1.527-0.378-2.392-0.593c0.876-2.017-1.227-3.997,0.232-6.215
		c0.156,0.657,0.15,1.184,0.402,1.516c0.199,0.263,0.854,0.506,1.068,0.373c1.02-0.633,0.825-3.297-0.322-3.573
		c-1.124-0.269-1.156-0.931-1.169-1.729c-0.041-2.405-0.193-4.82-0.014-7.21c0.104-1.364,0.771-2.686,1.267-4.297
		c0.619,0.695,0.946,1.063,1.274,1.432c1.145-0.984,1.145-0.984-0.061-3.27c-0.503-0.052-1.007-0.104-1.817-0.187
		c0.585-0.896,1.027-1.572,1.43-2.188c1.34,0.38,2.527,0.75,3.736,1.027c0.227,0.053,0.593-0.213,0.801-0.423
		c1.18-1.203,1.553-3.616,0.878-5.187c-0.159-0.37-0.376-0.902-0.229-1.187c0.989-1.925,2.068-3.804,3.106-5.675
		c2.301,0.802,2.281,0.801,1.87,3.118c-0.142,0.802-0.157,1.624-0.23,2.437C436.677,232.624,436.836,232.674,436.994,232.727
		 M510.933,416.055c0.239-0.025,0.479-0.05,0.719-0.074c-0.067-0.89-0.136-1.779-0.205-2.666l-0.861,0.09
		C510.7,414.289,510.816,415.172,510.933,416.055 M314.603,431.97c0.491-0.735,0.981-1.472,1.626-2.438
		C314.415,429.703,314.343,429.803,314.603,431.97 M358.263,402.835c1.944-0.731,2.196-1.437,1.414-3.345
		C359.206,400.608,358.82,401.52,358.263,402.835 M311.529,415.518c0.133-0.021,0.266-0.04,0.399-0.062
		c0.257-0.573,0.598-1.129,0.737-1.729c0.071-0.308-0.22-0.698-0.347-1.05c-0.333,0.256-0.91,0.479-0.948,0.773
		C311.283,414.122,311.459,414.827,311.529,415.518 M349.459,442.374c0.186-0.024,0.373-0.049,0.559-0.073
		c-0.059-1.262-0.118-2.522-0.176-3.783c-0.229,0.014-0.459,0.026-0.688,0.04C349.136,439.839,348.755,441.148,349.459,442.374
		 M354.146,408.987c0.027,0.205,0.053,0.412,0.08,0.616c0.688-0.083,1.547,0.058,2.023-0.304c0.689-0.522,1.1-1.409,1.629-2.142
		c-0.178-0.16-0.357-0.319-0.535-0.479C356.276,407.448,355.21,408.218,354.146,408.987 M468.43,412.729
		c2.635-1.01,3.15-2.114,1.879-3.823C468.803,409.74,468.106,411.091,468.43,412.729 M311.814,417.453
		c-1.222,1.173-2.257,1.816-3.781,0.858c-0.223-0.141-0.824,0.321-1.25,0.505c0.273,0.312,0.492,0.715,0.83,0.922
		c0.622,0.381,1.335,0.61,1.972,0.969c0.967,0.544,1.686,0.321,1.96-0.719C311.76,419.176,311.734,418.3,311.814,417.453
		 M458.057,412.232c-3.038-0.663-4.45,0.46-4.019,3.197C456.188,415.589,457.765,414.334,458.057,412.232 M310.059,428.534
		c-2.375,0.671-4.187,1.183-6.241,1.762c2.618,2.264,3.329,2.552,4.944,1.257C309.509,430.952,309.64,429.579,310.059,428.534
		 M458.621,419.857c-1.885,0.43-3.715,0.693-5.415,1.313c-0.645,0.236-1.13,1.243-1.405,2.002c-0.113,0.31,0.43,1.122,0.84,1.282
		c0.376,0.146,1.264-0.143,1.424-0.479c0.654-1.377,1.776-1.874,3.145-2.131C458.09,421.679,458.879,421.356,458.621,419.857
		 M319.725,388.95c-0.211-0.191-0.423-0.384-0.635-0.577c-0.497,0.391-1.009,0.764-1.488,1.176c-0.469,0.402-0.836,1.077-1.365,1.23
		c-1.88,0.543-2.156,2.188-2.715,3.642c-0.089,0.23,0.111,0.571,0.177,0.861c0.324-0.086,0.723-0.082,0.959-0.274
		c0.821-0.672,1.69-1.326,2.346-2.144C317.997,391.627,318.826,390.261,319.725,388.95 M351.978,426.114
		c0.174,0.193,0.348,0.386,0.521,0.579c2.632,0.509,2.599,0.359,1.973,2.913c-0.087,0.355-0.079,0.741-0.079,1.113
		c-0.002,2.863,0.125,5.735-0.035,8.591c-0.104,1.853,0.34,3.299,1.65,4.613c1.022,1.024,2.055,1.264,3.065,0.279
		c3.506-3.415,7.105-6.757,10.342-10.416c1.947-2.201,2.911-5.2,5.37-7.096c0.592-0.456,1.017-1.279,1.253-2.019
		c0.836-2.625,2.531-4.7,4.114-6.867c0.804-1.102,1.498-2.295,2.123-3.508c0.647-1.257,1.095-2.613,1.727-3.878
		c1.321-2.645,2.719-5.252,4.05-7.893c0.183-0.364,0.146-0.836,0.239-1.252c0.474-2.123,0.861-4.274,1.483-6.353
		c0.269-0.9,1.051-1.644,1.561-2.481c0.315-0.516,0.887-1.155,0.78-1.604c-0.603-2.528-1.127-5.182-4.206-6.024
		c-0.87-0.238-1.719-0.565-2.56-0.897c-2.809-1.109-5.629-2.196-8.406-3.385c-1.172-0.501-2.073-0.309-2.853,0.613
		c-1.436,1.692-3.182,3.145-3.807,5.448c-0.193,0.711-0.931,1.27-1.401,1.911c-0.372,0.509-0.775,1.008-1.061,1.563
		c-0.751,1.46-1.396,2.974-2.172,4.419c-1.357,2.523-2.995,4.886-3.351,7.876c-0.121,1.022-1.02,1.935-1.471,2.939
		c-0.367,0.816-0.556,1.711-0.892,2.543c-0.54,1.341-1.092,2.683-1.758,3.962c-0.1,0.19-0.987,0.231-1.272,0.021
		c-1.06-0.785-1.906-0.483-2.683,0.342c-1.055,1.121-2.049,2.291-2.03,4.047c1.298-0.682,2.33-1.265,3.399-1.771
		c1.06-0.503,1.591-0.027,1.772,1.055c0.181,1.084-0.149,1.955-1.137,2.401c-0.705,0.319-1.626,0.236-2.252,0.64
		c-0.881,0.568-1.577,1.42-2.353,2.151c0.624,0.472,1.242,0.952,1.874,1.412c0.123,0.089,0.318,0.074,0.45,0.154
		c0.38,0.23,1.058,0.496,1.05,0.729c-0.016,0.458-0.322,1.004-0.676,1.331C353.598,424.981,352.765,425.523,351.978,426.114
		 M459.399,406.627c-0.495-0.021-0.862-0.025-1.227-0.057c-0.941-0.08-1.114-0.523-0.844-1.422c0.262-0.869,0.277-1.81,0.412-2.718
		c0.107-0.729,0.079-1.523,0.373-2.168c1.522-3.345,3.093-6.666,4.72-9.961c0.883-1.791,1.946-3.492,2.841-5.278
		c0.213-0.425,0.19-1.058,0.071-1.545c-0.692-2.821,0.409-5.387,3.049-6.695c0.812-0.402,1.125-0.854,1.255-1.786
		c0.136-0.978,0.806-1.874,1.182-2.83c0.304-0.773,0.545-1.577,0.762-2.382c0.175-0.647,0.148-1.371,0.421-1.965
		c1.309-2.846,3.018-5.531,3.06-8.839c0.007-0.481,0.638-1.262,1.11-1.379c3.711-0.913,7.452-1.7,11.186-2.524
		c0.103-0.021,0.212-0.023,0.319-0.021c2.645,0.061,8.771,4.467,9.714,6.934c0.542,1.418,0.408,2.706-0.486,3.928
		c-1.83,2.497-3.659,4.996-5.478,7.501c-0.312,0.43-0.61,0.876-0.853,1.348c-1.674,3.252-3.337,6.51-4.991,9.772
		c-0.983,1.942-1.933,3.901-2.921,5.838c-0.289,0.566-0.595,1.147-1.009,1.618c-0.747,0.85-1.046,1.604-0.359,2.705
		c0.651,1.044,0.081,2.601-1.581,3.369c-1.823,0.844-1.863,2.304-1.968,3.809c-0.14,2.033-1.556,3.993-3.56,4.691
		c-0.341,0.12-0.675,0.256-0.899,0.341c0.299,0.979,1.012,2.061,0.727,2.691c-0.355,0.786-1.532,1.2-2.526,1.894
		c0.399,0.358,0.771,0.618,1.049,0.956c0.409,0.501,1.143,1.172,1.028,1.564c-0.176,0.604-0.909,1.393-1.484,1.465
		c-1.44,0.176-1.771,0.953-2.032,2.189c-0.144,0.677-0.835,1.325-1.428,1.8c-1.161,0.929-1.42,1.739-0.347,2.739
		c1.086,1.013,0.842,1.695-0.166,2.412c-0.705,0.502-1.209,0.968-0.724,1.963c0.152,0.316-0.173,0.891-0.331,1.327
		c-0.331,0.91-1.044,1.789,0.061,2.706c0.186,0.154,0.167,0.736,0.044,1.04c-0.573,1.417-1.121,2.858-1.857,4.192
		c-0.837,1.513,0.698,2.054,1.133,3.023c0.061,0.137,1.15-0.013,1.635-0.271c5.123-2.73,8.941-6.848,12.259-11.524
		c0.745-1.05,1.834-1.855,2.842-2.617c0.546-0.979,0.999-2.027,1.653-2.929c4.136-5.7,8.379-11.322,12.449-17.066
		c1.534-2.165,2.711-4.584,4.021-6.903c0.202-0.358,0.385-0.817,0.347-1.206c-0.228-2.313,1.341-3.62,2.769-4.965
		c1.029-0.97,1.934-0.924,3.104-0.086c-0.422,0.675-0.845,1.353-1.269,2.032c0.146,0.102,0.29,0.202,0.436,0.305
		c0.995-0.269,2.202-0.073,1.826-2.028c-0.247-1.289,0.118-2.753,0.469-4.07c0.129-0.483,0.99-0.785,1.539-1.14
		c0.33-0.214,1.022-0.424,1.003-0.541c-0.247-1.404,0.914-1.881,1.577-2.73c0.558-0.716,0.892-1.686,1.076-2.593
		c0.265-1.289,0.75-2.247,2.016-2.842c1.375-0.646,2.387-1.591,1.946-3.403c-0.102-0.421,0.188-1.125,0.534-1.434
		c1.247-1.115,2.618-2.088,3.894-3.174c0.547-0.466,1.293-1.018,1.397-1.625c0.397-2.29,1.655-3.877,3.523-5.108
		c0.287-0.188,0.475-0.526,0.917-1.034c-1.188-0.258-2.151-0.425-3.09-0.68c-1.458-0.396-1.679-1.202-0.599-2.279
		c0.444-0.441,0.995-0.842,1.573-1.07c1.562-0.617,3.137-1.239,4.76-1.656c1.648-0.423,3.071,0.379,4.214,1.463
		c1.26,1.195,2.566,1.691,4.334,1.461c0.919-0.12,1.931,0.4,2.888,0.672c1.269,0.361,2.523,0.767,3.788,1.145
		c1.409,0.423,2.89,0.683,4.217,1.284c2.465,1.115,4.923,2.295,7.212,3.723c0.925,0.578,1.365,1.904,2.087,2.843
		c0.63,0.822,1.216,1.773,2.05,2.323c1.827,1.203,3.129,2.558,2.788,4.943c-0.049,0.343,0.022,0.864,0.249,1.061
		c1.518,1.313,0.616,2.437-0.202,3.582c-2.142,2.997-4.15,6.101-6.473,8.95c-1.724,2.114-3.577,4.273-6.718,4.454
		c-0.569,0.032-1.174,0.664-1.637,1.142c-1.535,1.59-2.499,1.719-4.521,0.773c-0.577-0.271-1.386-0.163-2.065-0.065
		c-1.105,0.161-2.183,0.561-3.29,0.667c-1.109,0.107-2.247,0.03-3.361-0.071c-0.422-0.038-1.139-0.338-1.16-0.57
		c-0.041-0.432,0.315-0.91,0.542-1.351c0.064-0.126,0.24-0.243,0.384-0.273c2.762-0.595,3.511-3.168,4.968-5.04
		c1.319-1.695,2.703-3.349,3.905-5.123c1.198-1.771,2.206-3.67,3.294-5.516c0.619-1.051,1.294-2.076,1.814-3.175
		c0.186-0.392-0.008-0.965-0.027-1.455c-0.437,0.121-0.946,0.137-1.297,0.38c-1.27,0.886-2.447,1.906-3.736,2.761
		c-0.955,0.635-2.034,1.079-3.046,1.63c-0.302,0.165-0.643,0.348-0.832,0.617c-1.189,1.687-2.326,3.409-3.515,5.098
		c-0.237,0.336-0.591,0.75-0.95,0.814c-1.451,0.262-2.17,1.127-2.527,2.493c-0.079,0.306-0.591,0.564-0.957,0.712
		c-0.488,0.196-1.045,0.221-1.547,0.394c-2.641,0.912-3.062,1.572-2.187,4.175c0.482,1.438,0.509,2.465-1.009,3.176
		c-0.186,0.087-0.281,0.507-0.301,0.782c-0.113,1.617-1.031,2.648-2.432,3.256c-1.102,0.478-2.26,0.817-3.594,1.29
		c0.037,0.112,0.164,0.52,0.269,0.851c0.231,0.077,0.331,0.143,0.428,0.141c0.493-0.015,0.985-0.047,1.478-0.072
		c-0.097,0.541-0.046,1.174-0.316,1.606c-0.667,1.064-1.242,2.702-2.943,0.991c-0.133-0.133-0.966,0.216-1.277,0.532
		c-0.425,0.433-0.662,1.05-1.044,1.695c0.458,0.225,0.766,0.398,1.091,0.532c0.584,0.241,1.686,0.479,1.678,0.68
		c-0.034,0.82-0.408,1.626-0.775,2.828c-0.676-0.78-1.008-1.162-1.469-1.694c-0.366,0.317-0.773,0.621-1.125,0.98
		c-0.64,0.655-0.613,1.237,0.316,1.571c1.444,0.518,1.5,1.553,0.947,2.7c-0.523,1.089-1.198,2.103-1.8,3.152
		c-0.128,0.221-0.389,0.555-0.316,0.669c0.717,1.16-0.353,2.204-0.228,3.19c0.395,3.121,0.555,6.38,3.261,8.698
		c2.647,2.27,5.582,3.535,9.106,2.946c1.571-0.263,3.115-0.684,4.668-1.047c3.541-0.828,6.197-2.954,8.482-5.682
		c0.986-1.178,2.087-2.278,3.26-3.267c0.33-0.277,1.098-0.035,1.666-0.03c-0.028,0.507,0.08,1.074-0.117,1.505
		c-0.271,0.591-0.771,1.075-1.174,1.606c0.119,0.164,0.239,0.328,0.358,0.491c0.534-0.31,1.217-0.5,1.58-0.949
		c6.659-8.214,13.633-16.204,19.808-24.769c6.638-9.206,12.53-18.952,18.712-28.485c0.751-1.157,1.245-2.478,1.924-3.685
		c1.286-2.284,2.095-4.653,1.644-7.326c-0.415-2.458,1.322-4.051,2.465-5.864c0.194-0.307,0.743-0.621,1.075-0.573
		c2.125,0.311,4.432-0.204,6.327,1.182c1.001,0.73,1.94,0.904,3.132,0.483c0.653-0.229,1.551-0.287,2.166-0.022
		c2.78,1.198,5.521,2.495,8.233,3.843c1.569,0.78,1.986,2.101,0.742,3.218c-2.866,2.572-3.438,6.084-4.14,9.47
		c-0.731,3.525-1.073,7.147-1.364,10.744c-0.348,4.297-0.431,8.615-0.691,12.92c-0.121,2.02-0.389,4.029-0.617,6.316
		c0.918-0.115,1.553-0.091,2.115-0.281c4.033-1.36,8.102-2.637,12.061-4.189c4.696-1.841,9.285-3.954,13.947-5.882
		c0.48-0.199,1.627-0.025,1.654,0.126c0.163,0.88,0.434,2.38,0.032,2.623c-2.919,1.769-4.536,4.823-7.031,6.888
		c-2.793,2.31-6.058,4.131-9.707,5.014c-1.095,0.266-1.721,1.1-2.504,1.908c-1.042,1.073-2.834,1.445-4.334,2.043
		c-2.403,0.961-4.866,1.784-7.224,2.845c-0.492,0.222-0.895,1.23-0.88,1.866c0.032,1.455-0.256,2.626-1.761,3.328
		c2.212,2.188,0.651,4.597,0.537,6.86c-0.093,1.833-0.721,3.641-1.116,5.457c-0.305,1.395-1.434,1.829-2.575,2.37
		c-1.062,0.505-2.368,1.093-2.85,2.017c-0.342,0.659,0.209,2.387,0.891,2.834c1.082,0.713,1.333,1.433,0.81,2.322
		c-0.596,1.015-1.487,0.396-2.231-0.022c-0.27-0.152-0.51-0.356-0.745-0.521c-1.604,1.484-1.61,2.144-0.073,3.06
		c0.854,0.507,0.615,1.213,0.02,1.5c-1.163,0.562-2.432,0.93-3.683,1.281c-0.87,0.244-1.778,0.379-2.68,0.472
		c-2.136,0.222-4.382,1.314-6.264-0.731c-0.637-0.691-1.285-0.634-1.917,0.039c-1.168,1.244-2.427,1.368-3.863,0.413
		c-0.412-0.272-1.029-0.212-1.506-0.414c-0.664-0.279-1.285-0.661-1.83-1.198c-2.809-0.296-5.532-2.841-5.726-5.646
		c-0.021-0.312-0.024-0.807-0.202-0.899c-1.737-0.909-0.955-1.982-0.325-3.143c0.982-1.813,1.841-3.696,2.825-5.509
		c0.594-1.094,1.419-1.921,2.75-1.341c0.116-1.38,0.436-2.702,0.288-3.971c-0.293-2.534,1.477-3.407,3.137-4.496
		c0.672-0.439,1.559-1.008,1.729-1.676c0.828-3.229,3.111-4.757,6.045-5.655c0.103-0.031,0.201-0.072,0.305-0.104
		c4.027-1.243,3.916-3.216,4.183-7c0.084-1.188,0.153-2.382,0.341-3.555c0.219-1.365,0.563-2.71,0.852-4.064
		c0.021-0.104,0.088-0.246,0.044-0.311c-1.683-2.544,0.522-4.991,0.184-7.573c-0.336-2.561,0.164-5.222,0.119-7.835
		c-0.015-0.787-0.453-1.993-1.015-2.221c-0.553-0.226-1.769,0.338-2.246,0.922c-2.467,3.016-4.769,6.166-7.17,9.235
		c-1.471,1.882-3.104,3.642-4.497,5.577c-0.885,1.229-1.624,2.62-2.138,4.043c-0.728,2.022-1.531,3.893-2.992,5.567
		c-1.048,1.197-1.642,2.85-2.226,4.382c-1.731,4.547-4.059,8.652-7.653,12.044c-1.278,1.207-2.195,2.866-3.049,4.441
		c-2.804,5.182-6.667,9.371-11.558,12.605c-1.453,0.961-3.049,1.705-4.585,2.539c-0.185,0.101-0.49,0.266-0.588,0.193
		c-1.562-1.141-2.4,0.607-3.551,0.807c-2.672,0.462-5.256,1.98-8.108,1.022c-0.099-0.033-0.215-0.06-0.316-0.043
		c-2.993,0.461-5.844-0.345-8.717-0.968c-0.258-0.056-0.552,0.016-0.794-0.071c-2.016-0.723-3.851-1.939-6.205-1.668
		c-0.595,0.067-1.578-0.935-1.939-1.664c-0.621-1.249-1.506-1.86-2.8-2.087c-0.927-0.163-1.452-0.513-1.406-1.698
		c0.058-1.493-0.487-2.742-2.298-3.129c-0.676-0.146-1.264-0.942-1.772-1.542c-0.744-0.876-1.535-1.768-2.032-2.785
		c-1.136-2.324-1.006-2.479,1.249-2.833c0.409-0.986,0.911-1.837,1.069-2.75c0.067-0.396-0.478-1.079-0.917-1.336
		c-0.573-0.334-1.612-0.158-1.933-0.588c-0.809-1.086-1.755-2.354-1.853-3.611c-0.113-1.467-0.999-2.009-1.912-2.41
		c-0.46-0.201-1.461,0.369-1.981,0.848c-1.365,1.251-2.595,2.528-2.923,4.602c-0.237,1.506-1.123,3.005-2.032,4.284
		c-1.169,1.643-0.748,3.467-1.109,5.193c-0.618,2.947-1.516,5.841-2.393,8.729c-0.15,0.498-0.822,0.817-1.167,1.283
		c-0.472,0.636-0.859,1.334-1.282,2.005c0.695,0.092,1.393,0.185,2.298,0.305c0.477,1.001-0.219,1.705-1.221,2.1
		c-1.271,0.498-2.04,1.261-2.609,2.56c-0.526,1.203-1.255,2.791-3.233,1.827c-0.164-0.081-0.583,0.197-0.794,0.401
		c-1.962,1.896-4.186,3.262-6.947,3.643c-0.452,0.062-0.894,0.336-1.299,0.58c-2.585,1.552-4.731,1.334-7.213-0.496
		c-0.98-0.723-2.212-1.484-3.357-1.531c-2.802-0.113-4.479-1.16-4.562-4.197c-0.484,0.07-0.838,0.144-1.194,0.17
		c-1.159,0.087-2.193-0.871-1.716-1.865c1.037-2.152-0.776-3.098-1.605-4.43c-0.706-1.138-1.643-2.133-2.581-3.322
		c-0.098,0.109-0.492,0.501-0.82,0.941c-1.211,1.629-2.367,3.3-3.614,4.898c-0.483,0.619-1.08,1.239-1.763,1.596
		c-1.397,0.733-2.178,1.712-2.667,3.289c-1.146,3.695-6.584,5.626-9.943,3.756c-0.286-0.159-0.784-0.284-1.015-0.146
		c-1.812,1.098-3.85,0.835-5.611,0.391c-2.609-0.658-5.265-1.482-7.354-3.445c-2.129-2-2.97-4.424-3.464-7.294
		c-0.817-4.736,1.74-8.359,3.27-12.349c0.093-0.243,0.455-0.501,0.405-0.665c-0.588-1.938,0.531-3.594,0.841-5.38
		c0.117-0.676,0.158-1.4,0.442-2.004c1.396-2.977,2.86-5.922,4.306-8.875c0.328-0.67,0.695-1.321,1.017-1.994
		c0.561-1.172,0.26-2.131-0.905-2.659c-1.451-0.659-2.934-1.27-4.452-1.749c-1.365-0.43-2.365-1.167-2.968-2.465
		c-0.201-0.433-0.388-0.936-0.732-1.229c-2.208-1.876-2.703-4.487-3.166-7.124c-0.492-2.803-1.579-5.572-0.421-8.457
		c0.157-0.394,0.213-0.862,0.466-1.175c0.8-0.991,1.104-1.975,0.607-3.249c-0.205-0.525,0.009-1.261,0.155-1.87
		c0.281-1.182-0.141-1.898-1.334-1.692c-1.987,0.343-3.982,0.76-5.889,1.397c-1.465,0.489-2.134,2.939-1.437,4.421
		c1.152,2.449,0.697,3.183-1.181,4.955c-0.929,0.876-0.986,2.72-1.322,4.153c-0.095,0.404,0.464,1.033,0.304,1.34
		c-1.232,2.364-1.095,5.47-3.703,7.066c-0.382,0.234-1.046,0.039-1.576-0.007c-0.528-0.047-1.29-0.404-1.522-0.18
		c-0.387,0.37-0.753,1.246-0.566,1.649c1.04,2.239-0.501,3.76-1.722,4.87c-1.981,1.8-3.08,3.897-3.683,6.375
		c-0.345,1.414-0.736,2.692-2.575,2.735c-0.23,0.005-0.475,0.665-0.66,1.048c-0.384,0.795-0.618,1.688-1.12,2.396
		c-0.93,1.311-2.127,2.443-2.968,3.8c-0.345,0.559-0.057,1.507-0.057,2.197c0.496,0.078,0.551,0.104,0.598,0.092
		c0.672-0.166,1.342-0.337,2.013-0.506c-0.191,0.735-0.274,1.522-0.602,2.19c-0.442,0.901-1.013,1.756-1.635,2.546
		c-0.859,1.091-0.791,2.169-0.455,3.448c0.264,1.003,0.38,2.23,0.042,3.173c-1.076,2.995-2.379,5.91-3.638,8.838
		c-0.17,0.394-0.635,1-0.889,0.965c-1.546-0.208-1.474,0.883-1.795,1.851c-0.32,0.965-0.85,1.901-1.465,2.72
		c-0.766,1.019-1.709,1.905-2.581,2.844c-1.237,1.331-2.889,1.052-3.765-0.521c-0.253-0.454-0.892-0.873-1.405-0.945
		c-0.386-0.054-0.853,0.472-1.608,0.94c1.511,0.59,2.896,0.808,2.434,2.542c-0.288,1.078-0.904,1.36-1.91,1.022
		c-0.982-0.331-1.952-0.73-2.96-0.95c-1.324-0.288-2.769-0.133-3.683-1.516c-0.185-0.281-0.876-0.278-1.341-0.316
		c-1.33-0.106-2.667-0.136-3.996-0.254c-1.759-0.156-3.204-0.674-3.575-2.76c-0.076-0.43-0.888-0.92-1.437-1.046
		c-4.782-1.092-6.171-5.211-7.967-8.926c-0.17-0.354,0.392-1.157,0.762-1.639c0.224-0.29,0.734-0.357,1.325-0.618
		c-0.325-0.481-0.604-0.834-0.815-1.224c-0.306-0.567-0.562-1.161-0.84-1.744c0.583-0.083,1.166-0.165,1.89-0.268
		c-0.208-1.249-0.419-2.561-0.696-3.858c-0.006-0.023-1.064-0.009-1.167,0.207c-0.31,0.658-0.336,1.441-0.58,2.138
		c-0.202,0.578-0.491,1.155-0.872,1.628c-0.17,0.21-0.738,0.314-0.984,0.188c-0.245-0.125-0.469-0.617-0.433-0.915
		c0.298-2.473,0.604-4.948,1.039-7.397c0.109-0.61,0.569-1.399,1.088-1.653c2.334-1.143,2.781-3.317,3.013-5.478
		c0.267-2.491,0.199-4.967,1.801-7.168c0.696-0.956,0.99-2.331-0.589-3.134c-0.238-0.121-0.547-0.584-0.479-0.749
		c0.631-1.547-0.254-3.411,1.121-4.825c0.805-0.826,1.389-1.868,2.29-3.112c-0.946,0-1.748,0.235-2.286-0.041
		c-2.327-1.196-3.045,0.67-3.961,2.009c-0.928,1.355-1.703,2.82-2.508,4.257c-2.755,4.926-5.689,9.764-8.179,14.821
		c-2.158,4.383-4.33,8.889-5.491,13.59c-0.739,2.99-1.114,6.122-2.171,9.069c-0.751,2.092-1.797,4.093-2.375,6.226
		c-0.484,1.789-0.471,3.649-2.274,4.874c-0.42,0.286-0.238,1.449-0.342,2.207c-0.171,1.238-0.143,2.553-0.574,3.694
		c-0.558,1.474-1.739,1.584-2.674,0.339c-0.715-0.952-1.413-1.493-2.675-1.133c-0.462,0.132-1.065-0.066-1.56-0.238
		c-3.471-1.207-7.306-1.188-10.527-3.287c-1.831-1.194-1.988-1.551-0.462-3.054c0.971-0.956,0.686-1.821-1.02-3.118
		c-0.417-0.316-1.105-0.596-1.171-0.979c-0.108-0.62,0.196-1.312,0.326-1.973c0.518,0.291,1.054,0.556,1.544,0.889
		c0.142,0.097,0.103,0.43,0.233,0.577c0.225,0.254,0.492,0.507,0.795,0.634c0.106,0.044,0.512-0.271,0.529-0.446
		c0.032-0.338-0.01-0.914-0.204-1.008c-1.787-0.853-1.095-2.104-0.856-3.513c0.373-2.2,0.345-4.468,0.481-6.709
		c0.036-0.586,0.048-1.172,0.074-1.758c0.09-2.111,0.202-4.222,0.251-6.333c0.007-0.322-0.275-0.651-0.424-0.976
		c-0.361,0.166-0.794,0.255-1.071,0.512c-2.019,1.876-3.92,3.889-6.027,5.658c-2.502,2.101-5.534,2.767-8.872,2.789
		c0.052-0.445,0.001-0.742,0.121-0.935c2.008-3.208,3.794-6.596,6.14-9.538c1.804-2.262,2.436-5.017,3.932-7.285
		c2.142-3.249,2.991-6.9,4.369-10.396c0.44-1.118,1.511-1.978,2.219-3.007c0.468-0.681,0.883-1.421,1.177-2.19
		c0.587-1.533,0.963-3.153,1.63-4.646c0.821-1.838,0.91-1.799,2.7-0.385c0.623-1.966,1.244-3.81,1.769-5.681
		c0.094-0.336-0.136-0.826-0.34-1.171c-0.923-1.563-0.855-1.625,0.883-1.838c0.763-0.093,1.479-0.585,2.216-0.896
		c-0.063-0.174-0.125-0.348-0.188-0.521c-0.299-0.026-0.598-0.065-0.898-0.076c-1.274-0.051-1.693-0.654-1.34-1.896
		c1.085-3.812,2.102-7.645,3.221-11.447c0.279-0.951,0.939-1.787,1.252-2.733c0.732-2.209,1.34-4.46,2.04-6.68
		c0.284-0.901,0.732-1.75,1.008-2.653c0.431-1.408,0.92-2.822,1.125-4.271c0.221-1.571,0.494-3.02,1.7-4.19
		c0.426-0.413,0.714-1.066,0.853-1.659c0.461-1.96,0.8-3.948,1.234-5.915c0.351-1.59,0.115-1.936-1.536-1.834
		c-1.97,0.121-3.937,0.305-5.904,0.47c-1.867,0.156-3.158-0.67-4.433-2.03c-1.503-1.604-3.224-3.119-5.118-4.208
		c-2.166-1.245-3.377-3.241-4.744-5.087c-0.479-0.649-0.144-2.033,0.1-3.014c0.087-0.351,1.068-0.789,1.524-0.683
		c1.641,0.382,3.199,1.169,4.849,1.446c1.819,0.304,3.732,0.461,5.553,0.247c3.849-0.454,7.674-1.143,11.485-1.859
		c0.703-0.132,1.405-0.757,1.9-1.333c0.301-0.351,0.258-1.042,0.276-1.583c0.033-0.974-0.265-2.039,0.03-2.913
		c2.617-7.767,5.312-15.507,8.034-23.238c0.978-2.778,2.417-3.493,5.214-3.673c3.957-0.253,7.9-0.787,11.831-1.326
		c1.576-0.215,2.804,0.404,3.114,2.141c0.382,2.139,0.159,4.212-0.878,6.202c-2.214,4.255-4.539,8.47-6.443,12.861
		c-1.343,3.101-2.063,6.47-3.07,9.717c-0.291,0.936,0.07,1.433,1.001,1.578c0.158,0.025,0.317,0.051,0.477,0.06
		c9.276,0.504,18.552,1,27.828,1.509c1.646,0.09,3.312,0.099,4.927,0.38c2.006,0.351,2.384,1.544,1.205,3.233
		c-0.867,1.241-1.997,1.919-3.534,2.212c-6.472,1.236-13.024,1.528-19.575,1.892c-1.374,0.076-2.755,0.317-4.097,0.632
		c-3.459,0.813-6.892,1.736-10.349,2.56c-1.241,0.295-1.939,0.965-2.192,2.218c-0.282,1.401-0.504,2.848-1.033,4.161
		c-1.923,4.776-4.144,9.441-5.89,14.278c-0.964,2.67-1.208,5.6-1.774,8.413c-0.136,0.677-0.125,1.425-0.42,2.021
		c-1.605,3.238-3.34,6.413-4.902,9.671c-0.395,0.822-0.285,1.876-0.47,2.812c-0.438,2.216-0.853,4.439-1.408,6.628
		c-0.19,0.747-0.871,1.358-1.13,2.101c-0.14,0.401,0.12,0.952,0.229,1.428c0.147,0.637,0.451,1.266,0.444,1.896
		c-0.005,0.491-0.316,1.02-0.602,1.461c-1.592,2.455-1.897,5.185-2.018,8.034c-0.124,2.91-1.131,5.57-3.005,7.894
		c-0.525,0.65-0.688,1.592-1.091,2.579c0.675,0.062,1.043,0.175,1.378,0.111c2.149-0.405,2.682,1.225,2.291,2.743
		c-0.279,1.082-0.641,2.143-0.909,3.227c-0.127,0.512-0.122,1.058-0.177,1.588c0.163,0.081,0.325,0.163,0.487,0.244
		c0.437-0.526,0.935-1.013,1.3-1.585c2.986-4.677,5.851-9.434,8.948-14.036c2.238-3.324,4.77-6.45,7.177-9.66
		c3.068-4.089,6.448-7.985,9.106-12.326c1.815-2.964,4.3-5.243,6.313-7.957c2.986-4.026,5.591-8.295,7.196-13.095
		c0.016-0.051,0.06-0.122,0.042-0.148c-1.693-2.451,1.331-4.011,1.179-6.179c-0.02-0.283,0.172-0.632,0.362-0.874
		c2.449-3.13,5.553-5.426,9.213-6.909c0.58-0.234,1.727,0.006,2.135,0.458c0.894,0.987,1.926,1.333,3.125,1.301
		c5.122-0.141,9.727,1.713,14.236,3.787c1.068,0.49,1.933,1.611,2.655,2.612c0.818,1.137,0.765,2.397-0.271,3.509
		c-0.919,0.984-0.594,1.599,0.639,1.861c1.041,0.224,2.079,0.478,3.13,0.631c1.878,0.275,3.335,1.08,4.593,2.592
		c0.6,0.719,1.936,1.111,2.949,1.131c1.41,0.026,2.824-0.475,4.246-0.681c3.721-0.539,7.445-1.06,11.174-1.545
		c1.161-0.15,1.867-0.664,2.044-1.858c0.22-1.485,1.005-2.577,2.089-3.648c1.196-1.181,2.02-2.736,3.038-4.103
		c1.316-1.766,4.271-2.601,6.335-1.743c1.476,0.612,2.874,1.415,4.359,1.997c1.074,0.421,2.218,0.75,3.358,0.889
		c1.975,0.24,3.396,1.314,4.41,2.859c0.34,0.516,0.275,1.601-0.04,2.193c-1.622,3.06-3.278,6.095-5.809,8.573
		c-1.006,0.986-1.645,2.351-2.439,3.548c-1.711,2.578-3.323,5.227-5.146,7.722c-1.988,2.721-2.824,5.8-3.154,9.043
		c-0.205,2.021,0.311,2.586,2.274,2.977c2.87,0.572,5.811,0.882,8.61,1.689c1.836,0.529,3.627,1.538,5.17,2.691
		c2.432,1.818,2.593,4.642,2.537,7.414c-0.009,0.438-0.269,0.945-0.564,1.289c-1.021,1.188-1.896,2.385-2.079,4.041
		c-0.054,0.498-0.747,1.022-1.263,1.353c-1.159,0.736-1.896,1.612-1.936,3.086c-0.017,0.632-0.348,1.603-0.812,1.812
		c-1.506,0.683-1.462,2.084-2.037,3.267c-1.038,2.139-2.515,4.06-3.694,6.136c-0.346,0.608-0.501,1.459-0.409,2.154
		c0.179,1.351-0.517,2.198-1.461,2.808c-1.405,0.909-2.394,1.826-1.782,3.724c0.145,0.448-0.345,1.178-0.683,1.686
		c-0.837,1.253-0.774,1.549,0.675,1.979c2.037,0.606,4.074,0.867,6.081-0.133c0.189-0.094,0.416-0.203,0.61-0.178
		c2.473,0.31,3.371-1.775,4.762-3.107c0.039-0.037,0.094-0.078,0.102-0.123c0.434-3.2,3.546-4.416,5.088-6.827
		c1.569-2.454,3.529-4.618,2.393-7.857c-0.1-0.282,0.22-1.017,0.448-1.065c2.196-0.476,1.896-2.414,2.409-3.891
		c0.315-0.911,0.874-1.756,1.086-2.686c0.17-0.749,0.205-1.675-0.092-2.349c-0.456-1.038-0.185-1.423,0.583-2.232
		c1.389-1.466,3.233-2.732,3.49-5.035c0.136-1.222,0.804-1.459,1.922-1.059C458.336,408.627,458.945,408.288,459.399,406.627"/>
</g>
</svg>
